<svg width="429" height="505" viewBox="0 0 429 505" fill="none" xmlns="http://www.w3.org/2000/svg">
<g clip-path="url(#clip0_17_57)">
<rect width="427" height="505.068" transform="translate(0 0.898788) rotate(-0.120593)" fill="#EDF6D7"/>
<circle cx="329.909" cy="432.205" r="6" transform="rotate(-0.120593 329.909 432.205)" fill="#603E3E"/>
<circle cx="84.6839" cy="325.721" r="6" transform="rotate(-0.120593 84.6839 325.721)" fill="#603E3E"/>
<path d="M374.433 206.111C374.433 206.111 388.948 213.081 394.974 225.568C401 238.055 404.876 262.547 384.619 294.59C364.362 326.633 328.11 290.209 293.68 323.781C259.251 357.354 207.981 228.962 157.09 281.069C133.693 330.118 102.73 347.683 84.6892 328.221" stroke="#603E3E" stroke-width="2" stroke-dasharray="4 4"/>
<circle cx="370.422" cy="201.12" r="6" transform="rotate(-0.120593 370.422 201.12)" fill="#603E3E"/>
<path d="M51.8357 160.29C37.3904 186.321 57.4839 230.778 90.9334 206.708C124.383 182.637 143.395 188.597 185.453 216.009C227.511 243.42 290.373 176.499 365.923 201.629" stroke="#603E3E" stroke-width="2" stroke-dasharray="4 4"/>
<circle cx="50.8251" cy="155.292" r="7.5" transform="rotate(-0.120593 50.8251 155.292)" fill="#603E3E"/>
<path d="M79.1777 322.733C79.1777 322.733 79.1777 322.733 60.1588 313.773C41.1398 304.813 30.6557 312.335 18.6778 322.86C6.69993 333.385 7.36727 412.884 39.8377 398.816C72.3081 384.747 72.5061 478.747 127.905 430.631C183.304 382.514 163.386 421.556 194.853 405.99C226.32 390.423 250.704 334.872 281.287 374.308C311.87 413.743 339.972 368.171 348.329 394.167C355.878 417.651 330.905 430.203 330.905 430.203" stroke="#603E3E" stroke-width="2" stroke-dasharray="4 4"/>
<path d="M322.999 154.977L322.922 151.673L314.343 151.691L314.344 152.165L315.751 152.162L315.771 161.76L314.365 161.763L314.366 162.237L322.944 162.219L323.007 158.915L322.55 158.916L322.201 160.006C321.898 160.921 321.442 161.473 320.833 161.661C320.634 161.72 320.417 161.75 320.183 161.751L317.933 161.755L317.923 157.062L321.386 157.055L321.385 156.527L317.922 156.535L317.913 152.158L320.163 152.153C321.065 152.151 321.705 152.619 322.082 153.555C322.129 153.661 322.17 153.772 322.206 153.889L322.542 154.978L322.999 154.977ZM327.847 161.752L327.302 161.753L327.311 157.411C327.391 156.474 327.741 155.828 328.361 155.476C328.584 155.358 328.806 155.299 329.029 155.298C329.685 155.297 330.102 155.642 330.279 156.333C330.338 156.544 330.368 156.778 330.368 157.036L330.376 160.798C330.377 161.29 330.243 161.583 329.974 161.677C329.845 161.724 329.658 161.748 329.412 161.749L329.413 162.206L333.438 162.197C333.437 161.94 333.361 161.793 333.208 161.758C333.138 161.747 333.068 161.741 332.997 161.741L332.312 161.743L332.303 157.295C332.3 155.913 331.817 155.023 330.856 154.627C330.551 154.498 330.222 154.435 329.871 154.435C329.027 154.437 328.313 154.773 327.728 155.442C327.541 155.665 327.389 155.9 327.273 156.146L327.182 154.687L324.229 154.693L324.23 155.133L325.355 155.13L325.367 160.808C325.368 161.324 325.175 161.623 324.788 161.706C324.636 161.741 324.455 161.759 324.244 161.76L324.245 162.217L328.288 162.208C328.287 161.95 328.21 161.804 328.058 161.769C327.988 161.758 327.917 161.752 327.847 161.752ZM334.326 158.451C334.33 160.057 334.936 161.192 336.144 161.858C336.766 162.196 337.481 162.365 338.29 162.363C339.509 162.36 340.439 161.972 341.082 161.197C341.281 160.962 341.433 160.704 341.538 160.422L341.08 160.3C340.719 161.075 340.11 161.562 339.255 161.763C339.033 161.822 338.799 161.852 338.552 161.853C337.17 161.832 336.47 160.697 336.453 158.447C336.449 156.302 336.921 155.118 337.87 154.893C338.01 154.869 338.145 154.857 338.274 154.857C338.825 154.856 339.165 155.095 339.295 155.576C339.319 155.681 339.342 155.839 339.366 156.05C339.449 156.566 339.591 156.893 339.79 157.034C339.943 157.127 340.136 157.179 340.371 157.191C340.898 157.189 341.226 156.984 341.354 156.573C341.377 156.479 341.389 156.392 341.388 156.31C341.387 155.782 341.064 155.326 340.419 154.94C339.82 154.59 339.105 154.416 338.273 154.418C336.961 154.42 335.936 154.88 335.2 155.795C334.615 156.511 334.324 157.397 334.326 158.451ZM344.328 158.378C344.325 156.596 344.639 155.5 345.271 155.088C345.528 154.936 345.827 154.859 346.167 154.858C347.057 154.856 347.621 155.359 347.857 156.366C347.976 156.858 348.035 157.503 348.037 158.299C348.041 160.186 347.686 161.324 346.972 161.712C346.738 161.83 346.474 161.889 346.181 161.889C345.303 161.891 344.745 161.388 344.508 160.381C344.39 159.877 344.33 159.21 344.328 158.378ZM346.236 154.401C344.9 154.404 343.846 154.863 343.075 155.779C342.49 156.483 342.199 157.327 342.201 158.312C342.204 159.671 342.687 160.736 343.649 161.508C344.354 162.069 345.18 162.348 346.13 162.346C347.43 162.344 348.467 161.873 349.238 160.934C349.846 160.194 350.149 159.315 350.147 158.295C350.144 156.924 349.649 155.876 348.663 155.152C347.983 154.649 347.173 154.399 346.236 154.401ZM354.742 161.695L354.197 161.697L354.205 157.355C354.285 156.417 354.635 155.772 355.256 155.419C355.478 155.301 355.701 155.242 355.923 155.242C356.58 155.24 356.996 155.585 357.174 156.276C357.233 156.487 357.262 156.721 357.263 156.979L357.271 160.741C357.272 161.233 357.138 161.526 356.868 161.621C356.74 161.668 356.552 161.692 356.306 161.692L356.307 162.149L360.332 162.141C360.332 161.883 360.255 161.737 360.103 161.702C360.033 161.69 359.962 161.684 359.892 161.685L359.206 161.686L359.197 157.239C359.194 155.856 358.712 154.966 357.75 154.57C357.445 154.442 357.117 154.378 356.765 154.379C355.921 154.38 355.207 154.716 354.623 155.385C354.436 155.608 354.284 155.843 354.167 156.089L354.076 154.63L351.123 154.637L351.124 155.076L352.249 155.074L352.261 160.751C352.262 161.267 352.069 161.566 351.683 161.649C351.531 161.685 351.349 161.703 351.138 161.703L351.139 162.16L355.182 162.152C355.181 161.894 355.105 161.747 354.953 161.713C354.882 161.701 354.812 161.695 354.742 161.695ZM360.933 155.126L362.146 155.123L362.155 159.694C362.264 161.393 363.057 162.27 364.534 162.325C365.46 162.323 366.086 161.953 366.412 161.214C366.529 160.956 366.622 160.645 366.692 160.282L366.217 160.212C365.961 161.256 365.546 161.784 364.972 161.797C364.48 161.798 364.192 161.465 364.109 160.797C364.097 160.68 364.091 160.563 364.091 160.445L364.079 155.119L366.54 155.114L366.539 154.657L364.078 154.662L364.074 152.623L362.141 152.996L362.145 154.666L360.932 154.669L360.933 155.126ZM371.546 161.66L370.263 161.663L370.255 157.848C370.335 156.723 370.649 155.967 371.199 155.579C371.328 155.496 371.439 155.455 371.533 155.455C371.686 155.455 371.838 155.589 371.991 155.858C372.191 156.233 372.402 156.455 372.625 156.525C372.731 156.56 372.842 156.577 372.959 156.577C373.381 156.576 373.68 156.37 373.855 155.96C373.913 155.831 373.942 155.696 373.942 155.555C373.94 154.993 373.664 154.642 373.113 154.502C372.972 154.468 372.832 154.45 372.691 154.451C371.976 154.452 371.338 154.746 370.777 155.334C370.532 155.604 370.339 155.909 370.199 156.249L370.09 154.597L367.19 154.603L367.19 155.042L368.298 155.04L368.31 160.718C368.311 161.222 368.136 161.521 367.784 161.615C367.632 161.651 367.439 161.669 367.204 161.669L367.205 162.126L371.969 162.116C371.968 161.847 371.88 161.7 371.704 161.677C371.658 161.666 371.605 161.66 371.546 161.66ZM378.458 154.79C379.184 154.789 379.619 155.215 379.761 156.071C379.797 156.258 379.815 156.451 379.815 156.65C379.816 157.201 379.618 157.547 379.22 157.689C378.962 157.76 378.587 157.79 378.095 157.779L376.741 157.729C376.784 156.065 377.222 155.103 378.053 154.844C378.194 154.808 378.329 154.79 378.458 154.79ZM381.686 160.32L381.264 160.181C380.926 160.92 380.388 161.407 379.65 161.643C379.404 161.726 379.152 161.767 378.894 161.768C377.523 161.771 376.806 160.606 376.742 158.274C376.742 158.262 376.742 158.251 376.742 158.239L378.518 158.27C380.276 158.302 381.33 158.048 381.68 157.508C381.797 157.32 381.855 157.097 381.854 156.84C381.853 155.914 381.382 155.218 380.444 154.751C379.857 154.471 379.195 154.331 378.457 154.333C377.109 154.336 376.079 154.824 375.366 155.799C374.863 156.491 374.613 157.329 374.615 158.314C374.619 159.919 375.213 161.066 376.398 161.755C377.032 162.106 377.741 162.28 378.526 162.278C379.862 162.275 380.828 161.799 381.423 160.848C381.529 160.672 381.616 160.496 381.686 160.32ZM388.467 158.285C388.463 156.503 388.777 155.407 389.409 154.996C389.667 154.843 389.965 154.766 390.305 154.765C391.196 154.763 391.759 155.266 391.996 156.273C392.114 156.765 392.174 157.41 392.176 158.207C392.18 160.093 391.825 161.231 391.111 161.619C390.877 161.737 390.613 161.796 390.32 161.796C389.441 161.798 388.883 161.295 388.647 160.288C388.529 159.785 388.469 159.117 388.467 158.285ZM390.375 154.308C389.039 154.311 387.985 154.77 387.213 155.686C386.629 156.39 386.338 157.234 386.34 158.219C386.343 159.578 386.825 160.644 387.788 161.415C388.492 161.976 389.319 162.256 390.268 162.254C391.569 162.251 392.605 161.78 393.377 160.841C393.984 160.101 394.287 159.222 394.285 158.202C394.282 156.831 393.788 155.783 392.802 155.059C392.121 154.556 391.312 154.306 390.375 154.308ZM401.711 161.737C402.496 161.736 402.981 161.471 403.168 160.943C403.203 160.826 403.22 160.709 403.22 160.591C403.219 160.029 402.849 159.555 402.109 159.17C401.945 159.088 401.687 158.972 401.335 158.82C400.432 158.424 399.828 158.062 399.522 157.734C399.205 157.36 399.046 156.926 399.045 156.434C399.043 155.508 399.546 154.869 400.553 154.515C400.998 154.362 401.496 154.285 402.046 154.283C402.902 154.282 403.605 154.444 404.157 154.771C404.156 154.42 404.249 154.226 404.437 154.19C404.495 154.179 404.554 154.173 404.613 154.173L404.617 156.37L404.09 156.371C404.041 155.305 403.454 154.767 402.329 154.757C401.543 154.759 401.058 155.006 400.871 155.499C400.825 155.628 400.801 155.757 400.802 155.886C400.803 156.378 401.155 156.805 401.859 157.167C402.012 157.237 402.258 157.347 402.598 157.499C403.525 157.896 404.141 158.263 404.446 158.603C404.799 159 404.975 159.469 404.976 160.008C404.979 161.004 404.464 161.673 403.434 162.015C403.012 162.156 402.544 162.228 402.028 162.229C401.044 162.231 400.217 162.039 399.548 161.654C399.549 161.959 399.473 162.135 399.321 162.182C399.251 162.194 399.169 162.2 399.075 162.2L399.069 159.528L399.632 159.527C399.658 160.992 400.351 161.728 401.711 161.737ZM409.975 154.724C410.702 154.722 411.136 155.149 411.279 156.004C411.314 156.192 411.332 156.385 411.333 156.584C411.334 157.135 411.135 157.481 410.737 157.623C410.479 157.693 410.104 157.723 409.612 157.713L408.259 157.663C408.302 155.999 408.739 155.037 409.571 154.777C409.711 154.742 409.846 154.724 409.975 154.724ZM413.204 160.254L412.781 160.114C412.443 160.853 411.905 161.341 411.167 161.577C410.921 161.659 410.669 161.701 410.412 161.701C409.041 161.704 408.323 160.54 408.26 158.208C408.26 158.196 408.26 158.184 408.26 158.173L410.035 158.204C411.793 158.236 412.847 157.981 413.198 157.442C413.314 157.254 413.373 157.031 413.372 156.773C413.37 155.847 412.9 155.151 411.961 154.684C411.375 154.404 410.712 154.265 409.974 154.267C408.626 154.27 407.596 154.758 406.883 155.732C406.381 156.425 406.131 157.263 406.133 158.247C406.136 159.853 406.73 161 407.916 161.689C408.549 162.039 409.258 162.214 410.044 162.212C411.379 162.209 412.345 161.732 412.941 160.782C413.046 160.606 413.134 160.43 413.204 160.254ZM422.945 161.552L422.259 161.553L422.244 154.487L419.256 154.493L419.257 154.933L420.311 154.93L420.303 159.167C420.246 160.104 419.908 160.761 419.287 161.138C419.053 161.267 418.819 161.332 418.585 161.333C417.811 161.334 417.365 160.896 417.246 160.017C417.222 159.865 417.21 159.712 417.21 159.56L417.199 154.498L414.141 154.504L414.142 154.943L415.267 154.941L415.276 159.283C415.291 161.216 416.131 162.187 417.796 162.196C418.745 162.194 419.5 161.794 420.061 160.995C420.177 160.819 420.277 160.643 420.358 160.468L420.449 162.014L423.367 162.008C423.367 161.739 423.29 161.592 423.138 161.569C423.079 161.557 423.015 161.552 422.945 161.552ZM329.095 182.749L328.621 182.75L328.629 178.409C328.709 177.448 329.048 176.796 329.645 176.455C329.832 176.349 330.019 176.296 330.207 176.296C330.687 176.295 331.028 176.581 331.228 177.155C331.311 177.413 331.352 177.706 331.353 178.034L331.361 181.796C331.362 182.276 331.251 182.563 331.029 182.658C330.9 182.716 330.707 182.746 330.449 182.747L330.45 183.204L334.194 183.196C334.193 182.938 334.117 182.792 333.965 182.757C333.894 182.745 333.824 182.74 333.754 182.74L333.297 182.741L333.287 178.293L333.287 178.065C333.414 177.197 333.758 176.628 334.32 176.358C334.472 176.287 334.625 176.252 334.777 176.251C335.316 176.25 335.692 176.548 335.904 177.145C335.987 177.415 336.028 177.708 336.029 178.024L336.037 181.786C336.038 182.266 335.927 182.553 335.705 182.648C335.576 182.707 335.382 182.736 335.125 182.737L335.126 183.194L339.081 183.186C339.08 182.928 339.004 182.781 338.851 182.747C338.781 182.735 338.711 182.729 338.64 182.729L337.972 182.731L337.963 178.213C337.96 177.053 337.572 176.234 336.797 175.755C336.445 175.533 336.064 175.422 335.654 175.423C334.553 175.425 333.728 175.96 333.179 177.028C333.156 177.075 333.138 177.116 333.127 177.151C332.867 176.285 332.374 175.741 331.647 175.52C331.459 175.461 331.266 175.432 331.066 175.433C330.035 175.435 329.257 175.894 328.731 176.809C328.685 176.903 328.638 176.997 328.591 177.09L328.5 175.684L325.547 175.691L325.548 176.13L326.673 176.128L326.685 181.805C326.686 182.321 326.494 182.62 326.107 182.703C325.955 182.739 325.773 182.756 325.562 182.757L325.563 183.214L329.518 183.206C329.518 182.936 329.429 182.79 329.254 182.767C329.207 182.755 329.154 182.749 329.095 182.749ZM342.114 179.382C342.11 177.601 342.424 176.505 343.056 176.093C343.314 175.94 343.612 175.863 343.952 175.863C344.843 175.861 345.406 176.364 345.643 177.371C345.761 177.863 345.821 178.507 345.823 179.304C345.827 181.191 345.472 182.328 344.757 182.717C344.523 182.834 344.26 182.893 343.967 182.894C343.088 182.896 342.53 182.393 342.294 181.386C342.175 180.882 342.115 180.214 342.114 179.382ZM344.021 175.406C342.685 175.408 341.632 175.868 340.86 176.783C340.276 177.488 339.985 178.332 339.987 179.316C339.989 180.676 340.472 181.741 341.435 182.513C342.139 183.074 342.966 183.353 343.915 183.351C345.216 183.348 346.252 182.877 347.023 181.938C347.631 181.199 347.934 180.319 347.932 179.3C347.929 177.929 347.435 176.881 346.449 176.156C345.768 175.654 344.959 175.404 344.021 175.406ZM348.804 176.151L350.017 176.149L350.027 180.719C350.136 182.418 350.929 183.295 352.405 183.351C353.331 183.349 353.957 182.978 354.284 182.239C354.4 181.981 354.494 181.671 354.563 181.307L354.088 181.238C353.833 182.281 353.418 182.81 352.844 182.823C352.351 182.824 352.064 182.49 351.98 181.822C351.968 181.705 351.962 181.588 351.962 181.471L351.951 176.145L354.412 176.14L354.411 175.683L351.95 175.688L351.945 173.649L350.013 174.022L350.016 175.692L348.803 175.694L348.804 176.151ZM357.354 179.35C357.35 177.569 357.664 176.473 358.296 176.061C358.554 175.908 358.852 175.831 359.192 175.831C360.083 175.829 360.646 176.332 360.883 177.339C361.001 177.831 361.061 178.475 361.063 179.272C361.067 181.159 360.712 182.296 359.998 182.684C359.764 182.802 359.5 182.861 359.207 182.862C358.328 182.864 357.77 182.361 357.534 181.354C357.416 180.85 357.356 180.182 357.354 179.35ZM359.262 175.373C357.926 175.376 356.872 175.836 356.1 176.751C355.516 177.456 355.225 178.3 355.227 179.284C355.23 180.644 355.712 181.709 356.675 182.481C357.379 183.042 358.206 183.321 359.155 183.319C360.456 183.316 361.492 182.845 362.264 181.906C362.871 181.167 363.174 180.287 363.172 179.268C363.169 177.897 362.675 176.849 361.689 176.124C361.008 175.622 360.199 175.372 359.262 175.373ZM368.523 182.667L367.24 182.669L367.232 178.855C367.311 177.73 367.626 176.973 368.176 176.585C368.305 176.503 368.416 176.462 368.51 176.461C368.662 176.461 368.815 176.596 368.968 176.865C369.168 177.239 369.379 177.462 369.602 177.531C369.708 177.566 369.819 177.584 369.936 177.583C370.358 177.583 370.656 177.377 370.831 176.966C370.89 176.837 370.919 176.702 370.918 176.562C370.917 175.999 370.641 175.648 370.09 175.509C369.949 175.474 369.809 175.457 369.668 175.457C368.953 175.459 368.315 175.753 367.754 176.34C367.508 176.61 367.316 176.915 367.176 177.255L367.067 175.603L364.166 175.609L364.167 176.049L365.275 176.046L365.287 181.724C365.288 182.228 365.113 182.527 364.761 182.622C364.609 182.657 364.416 182.675 364.181 182.676L364.182 183.133L368.946 183.123C368.945 182.853 368.857 182.707 368.681 182.684C368.634 182.672 368.582 182.666 368.523 182.667ZM375.08 182.653L374.5 182.654L374.491 178.576C374.489 177.533 374.821 176.817 375.488 176.429C375.723 176.3 375.957 176.235 376.191 176.234C376.871 176.233 377.305 176.595 377.494 177.321C377.542 177.521 377.565 177.743 377.566 177.989L377.574 181.698C377.575 182.179 377.487 182.466 377.312 182.56C377.183 182.619 376.984 182.649 376.714 182.649L376.715 183.106L380.618 183.098C380.617 182.84 380.541 182.694 380.388 182.659C380.318 182.648 380.248 182.642 380.177 182.642L379.509 182.643L379.5 178.196C379.497 176.802 379.021 175.906 378.071 175.51C377.777 175.393 377.461 175.335 377.121 175.336C376.172 175.338 375.417 175.691 374.856 176.395C374.704 176.607 374.581 176.824 374.488 177.047L374.477 171.685L371.418 171.692L371.419 172.149L372.544 172.146L372.564 181.709C372.565 182.236 372.361 182.541 371.951 182.624C371.81 182.648 371.64 182.66 371.441 182.66L371.442 183.117L375.52 183.109C375.52 182.851 375.443 182.705 375.291 182.67C375.22 182.658 375.15 182.653 375.08 182.653ZM383.651 179.295C383.647 177.514 383.961 176.417 384.593 176.006C384.851 175.853 385.149 175.776 385.489 175.775C386.38 175.773 386.943 176.276 387.18 177.283C387.298 177.775 387.358 178.42 387.36 179.217C387.364 181.103 387.009 182.241 386.294 182.629C386.06 182.747 385.797 182.806 385.504 182.807C384.625 182.808 384.067 182.306 383.831 181.298C383.713 180.795 383.653 180.127 383.651 179.295ZM385.558 175.318C384.222 175.321 383.169 175.78 382.397 176.696C381.813 177.4 381.522 178.245 381.524 179.229C381.527 180.588 382.009 181.654 382.972 182.425C383.676 182.986 384.503 183.266 385.452 183.264C386.753 183.261 387.789 182.79 388.56 181.851C389.168 181.111 389.471 180.232 389.469 179.212C389.466 177.841 388.972 176.793 387.986 176.069C387.305 175.566 386.496 175.316 385.558 175.318ZM393.994 182.613L393.519 182.614L393.528 178.272C393.608 177.311 393.946 176.66 394.543 176.319C394.73 176.213 394.918 176.16 395.105 176.159C395.586 176.158 395.926 176.445 396.126 177.019C396.209 177.276 396.251 177.569 396.251 177.897L396.259 181.659C396.26 182.139 396.15 182.427 395.927 182.521C395.798 182.58 395.605 182.61 395.347 182.61L395.348 183.067L399.092 183.059C399.092 182.801 399.015 182.655 398.863 182.62C398.793 182.609 398.722 182.603 398.652 182.603L398.195 182.604L398.185 178.157L398.185 177.928C398.312 177.061 398.657 176.492 399.219 176.221C399.371 176.15 399.523 176.115 399.675 176.115C400.214 176.113 400.59 176.412 400.802 177.009C400.885 177.278 400.926 177.571 400.927 177.887L400.935 181.649C400.936 182.13 400.825 182.417 400.603 182.511C400.474 182.57 400.281 182.6 400.023 182.6L400.024 183.057L403.979 183.049C403.978 182.791 403.902 182.645 403.75 182.61C403.679 182.598 403.609 182.593 403.539 182.593L402.871 182.594L402.861 178.077C402.859 176.916 402.47 176.097 401.696 175.618C401.344 175.396 400.963 175.286 400.553 175.287C399.451 175.289 398.626 175.824 398.077 176.891C398.054 176.938 398.037 176.979 398.025 177.015C397.765 176.148 397.272 175.604 396.545 175.383C396.357 175.325 396.164 175.296 395.965 175.296C394.933 175.298 394.155 175.757 393.63 176.672C393.583 176.766 393.536 176.86 393.49 176.954L393.399 175.548L390.446 175.554L390.447 175.993L391.572 175.991L391.583 181.669C391.585 182.184 391.392 182.484 391.005 182.566C390.853 182.602 390.671 182.62 390.46 182.62L390.461 183.077L394.417 183.069C394.416 182.8 394.328 182.653 394.152 182.63C394.105 182.619 394.052 182.613 393.994 182.613ZM408.727 175.726C409.454 175.725 409.888 176.152 410.031 177.007C410.066 177.194 410.084 177.388 410.085 177.587C410.086 178.138 409.887 178.484 409.489 178.625C409.232 178.696 408.857 178.726 408.364 178.715L407.011 178.666C407.054 177.001 407.492 176.04 408.323 175.78C408.464 175.745 408.598 175.727 408.727 175.726ZM411.956 181.257L411.534 181.117C411.195 181.856 410.657 182.343 409.919 182.579C409.674 182.662 409.422 182.703 409.164 182.704C407.793 182.707 407.075 181.542 407.012 179.21C407.012 179.199 407.012 179.187 407.012 179.175L408.787 179.207C410.545 179.238 411.599 178.984 411.95 178.444C412.067 178.256 412.125 178.034 412.124 177.776C412.122 176.85 411.652 176.154 410.714 175.687C410.127 175.407 409.465 175.268 408.726 175.269C407.379 175.272 406.348 175.761 405.636 176.735C405.133 177.427 404.883 178.266 404.885 179.25C404.888 180.856 405.483 182.003 406.668 182.692C407.301 183.042 408.011 183.216 408.796 183.215C410.132 183.212 411.098 182.735 411.693 181.785C411.798 181.609 411.886 181.433 411.956 181.257Z" fill="#603E3E"/>
<path d="M289.313 457.291C289.312 457.021 289.23 456.869 289.066 456.834C289.019 456.823 288.954 456.817 288.872 456.817L288.327 456.818L284.193 446.755L283.103 446.757L279.257 456.837L278.132 456.84L278.133 457.314L281.332 457.308C281.332 457.038 281.249 456.886 281.085 456.851C281.027 456.84 280.962 456.834 280.892 456.834L279.96 456.836L281.236 453.458L284.787 453.451L286.113 456.823L284.9 456.826L284.901 457.3L289.313 457.291ZM284.575 452.924L281.429 452.93L282.984 448.814L284.575 452.924ZM292.747 460.166L292.739 456.616C293.232 457.165 293.948 457.445 294.885 457.455C295.999 457.453 296.906 457.023 297.607 456.166C298.227 455.403 298.535 454.441 298.533 453.281C298.53 451.852 298.112 450.798 297.278 450.12C296.773 449.711 296.193 449.507 295.537 449.508C294.564 449.51 293.785 449.875 293.201 450.603C292.979 450.885 292.81 451.19 292.693 451.518L292.602 449.76L289.684 449.767L289.685 450.206L290.792 450.204L290.811 459.221C290.812 459.713 290.649 460.007 290.321 460.101C290.168 460.148 289.963 460.172 289.706 460.173L289.707 460.63L294.189 460.62C294.188 460.363 294.112 460.216 293.96 460.181C293.889 460.17 293.819 460.164 293.749 460.164L292.747 460.166ZM294.73 450.319C295.843 450.34 296.408 451.405 296.424 453.514C296.428 455.518 295.956 456.662 295.007 456.945C294.879 456.98 294.738 456.998 294.586 456.999C293.871 457 293.348 456.585 293.019 455.754C292.818 455.227 292.717 454.594 292.716 453.856C292.713 452.368 293.05 451.318 293.729 450.707C294.033 450.449 294.366 450.319 294.73 450.319ZM303.866 456.803L302.583 456.806L302.575 452.991C302.655 451.866 302.97 451.11 303.52 450.722C303.648 450.64 303.76 450.598 303.853 450.598C304.006 450.598 304.158 450.732 304.311 451.001C304.511 451.376 304.723 451.598 304.946 451.668C305.051 451.703 305.162 451.72 305.28 451.72C305.701 451.719 306 451.514 306.175 451.103C306.233 450.974 306.262 450.839 306.262 450.699C306.261 450.136 305.985 449.785 305.433 449.646C305.293 449.611 305.152 449.593 305.011 449.594C304.297 449.595 303.659 449.89 303.097 450.477C302.852 450.747 302.659 451.052 302.519 451.392L302.41 449.74L299.51 449.746L299.511 450.185L300.618 450.183L300.63 455.861C300.631 456.365 300.456 456.664 300.105 456.758C299.952 456.794 299.759 456.812 299.525 456.812L299.526 457.269L304.289 457.259C304.289 456.99 304.201 456.844 304.025 456.82C303.978 456.809 303.925 456.803 303.866 456.803ZM309.063 453.452C309.059 451.671 309.373 450.575 310.005 450.163C310.262 450.01 310.561 449.934 310.901 449.933C311.791 449.931 312.355 450.434 312.592 451.441C312.71 451.933 312.77 452.577 312.771 453.374C312.775 455.261 312.42 456.398 311.706 456.787C311.472 456.904 311.209 456.964 310.916 456.964C310.037 456.966 309.479 456.463 309.243 455.456C309.124 454.952 309.064 454.284 309.063 453.452ZM310.97 449.476C309.634 449.479 308.581 449.938 307.809 450.853C307.225 451.558 306.933 452.402 306.935 453.387C306.938 454.746 307.421 455.811 308.384 456.583C309.088 457.144 309.915 457.423 310.864 457.421C312.165 457.419 313.201 456.948 313.972 456.008C314.58 455.269 314.883 454.389 314.881 453.37C314.878 451.999 314.383 450.951 313.398 450.226C312.717 449.724 311.908 449.474 310.97 449.476ZM319.339 450.144L319.338 449.704L315.488 449.712L315.489 450.152L316.21 450.15L318.42 456.052C318.667 456.708 318.891 457.094 319.09 457.211C319.219 457.281 319.401 457.315 319.635 457.315L320.145 457.314L322.662 450.682C322.779 450.365 322.931 450.189 323.118 450.153C323.188 450.141 323.259 450.135 323.329 450.135C323.528 450.135 323.64 450.099 323.663 450.029C323.686 449.959 323.698 449.847 323.697 449.695L320.902 449.701L320.903 450.14L322.292 450.137L320.194 455.661L318.144 450.146L319.339 450.144ZM328.163 449.897C328.889 449.895 329.324 450.322 329.466 451.177C329.502 451.364 329.52 451.558 329.52 451.757C329.521 452.308 329.323 452.654 328.925 452.795C328.667 452.866 328.292 452.896 327.8 452.886L326.446 452.836C326.489 451.172 326.927 450.21 327.758 449.95C327.899 449.915 328.034 449.897 328.163 449.897ZM331.391 455.427L330.969 455.287C330.631 456.026 330.092 456.514 329.355 456.75C329.109 456.832 328.857 456.874 328.599 456.874C327.228 456.877 326.511 455.713 326.447 453.381C326.447 453.369 326.447 453.357 326.447 453.346L328.223 453.377C329.98 453.408 331.035 453.154 331.385 452.614C331.502 452.427 331.56 452.204 331.559 451.946C331.557 451.02 331.087 450.324 330.149 449.857C329.562 449.577 328.9 449.438 328.162 449.44C326.814 449.442 325.784 449.931 325.071 450.905C324.568 451.597 324.318 452.436 324.32 453.42C324.324 455.026 324.918 456.173 326.103 456.862C326.737 457.212 327.446 457.386 328.231 457.385C329.567 457.382 330.533 456.905 331.128 455.955C331.234 455.779 331.321 455.603 331.391 455.427ZM336.316 456.735L335.595 456.736L335.58 449.67L332.504 449.676L332.505 450.116L333.647 450.114L333.659 455.791C333.66 456.295 333.468 456.594 333.081 456.689C332.941 456.724 332.753 456.742 332.519 456.743L332.52 457.2L336.738 457.191C336.738 456.922 336.65 456.775 336.474 456.752C336.427 456.741 336.374 456.735 336.316 456.735ZM335.751 447.279C335.75 446.799 335.532 446.442 335.098 446.208C334.922 446.115 334.74 446.068 334.553 446.069C334.072 446.07 333.721 446.287 333.5 446.721C333.406 446.909 333.36 447.097 333.36 447.284C333.361 447.776 333.579 448.127 334.013 448.337C334.189 448.419 334.37 448.46 334.558 448.459C335.038 448.458 335.39 448.252 335.611 447.842C335.705 447.666 335.751 447.478 335.751 447.279ZM337.444 450.176L338.657 450.173L338.667 454.744C338.776 456.443 339.569 457.32 341.046 457.375C341.971 457.373 342.597 457.003 342.924 456.264C343.041 456.006 343.134 455.695 343.203 455.332L342.729 455.262C342.473 456.306 342.058 456.834 341.484 456.847C340.992 456.848 340.704 456.515 340.62 455.847C340.608 455.73 340.602 455.613 340.602 455.495L340.591 450.169L343.052 450.164L343.051 449.707L340.59 449.712L340.586 447.673L338.653 448.046L338.656 449.716L337.443 449.719L337.444 450.176ZM347.709 449.855C348.436 449.854 348.87 450.281 349.013 451.136C349.048 451.323 349.066 451.517 349.067 451.716C349.068 452.267 348.869 452.613 348.471 452.754C348.214 452.825 347.839 452.855 347.347 452.844L345.993 452.795C346.036 451.13 346.474 450.169 347.305 449.909C347.446 449.874 347.58 449.856 347.709 449.855ZM350.938 455.386L350.516 455.246C350.177 455.985 349.639 456.472 348.902 456.708C348.656 456.791 348.404 456.832 348.146 456.833C346.775 456.836 346.058 455.671 345.994 453.34C345.994 453.328 345.994 453.316 345.994 453.304L347.769 453.336C349.527 453.367 350.581 453.113 350.932 452.573C351.049 452.386 351.107 452.163 351.106 451.905C351.104 450.979 350.634 450.283 349.696 449.816C349.109 449.536 348.447 449.397 347.708 449.398C346.361 449.401 345.331 449.89 344.618 450.864C344.115 451.556 343.865 452.395 343.867 453.379C343.871 454.985 344.465 456.132 345.65 456.821C346.283 457.171 346.993 457.345 347.778 457.344C349.114 457.341 350.08 456.864 350.675 455.914C350.78 455.738 350.868 455.562 350.938 455.386ZM358.429 456.829C359.214 456.827 359.7 456.563 359.886 456.035C359.921 455.918 359.939 455.8 359.938 455.683C359.937 455.121 359.567 454.647 358.828 454.262C358.664 454.18 358.406 454.063 358.054 453.912C357.151 453.515 356.546 453.153 356.241 452.826C355.924 452.451 355.765 452.018 355.764 451.526C355.762 450.6 356.264 449.96 357.271 449.607C357.716 449.454 358.214 449.376 358.765 449.375C359.621 449.373 360.324 449.536 360.875 449.863C360.875 449.511 360.968 449.318 361.155 449.282C361.214 449.27 361.273 449.264 361.331 449.264L361.336 451.462L360.808 451.463C360.759 450.396 360.172 449.858 359.047 449.849C358.262 449.851 357.776 450.098 357.59 450.59C357.543 450.719 357.52 450.848 357.52 450.977C357.521 451.47 357.874 451.897 358.578 452.258C358.73 452.328 358.977 452.439 359.317 452.591C360.243 452.987 360.859 453.355 361.165 453.694C361.517 454.092 361.694 454.56 361.695 455.099C361.697 456.096 361.183 456.765 360.152 457.107C359.731 457.248 359.262 457.319 358.747 457.32C357.762 457.323 356.936 457.131 356.267 456.746C356.268 457.05 356.192 457.226 356.039 457.273C355.969 457.285 355.887 457.291 355.793 457.292L355.788 454.62L356.35 454.619C356.377 456.083 357.07 456.82 358.429 456.829ZM371.366 456.661L370.681 456.663L370.666 449.596L367.678 449.602L367.679 450.042L368.733 450.04L368.725 454.276C368.668 455.214 368.33 455.871 367.709 456.247C367.475 456.376 367.241 456.441 367.006 456.442C366.233 456.443 365.787 456.005 365.668 455.126C365.644 454.974 365.632 454.822 365.632 454.669L365.621 449.607L362.562 449.613L362.563 450.053L363.688 450.05L363.697 454.392C363.713 456.326 364.553 457.297 366.217 457.305C367.167 457.303 367.922 456.903 368.482 456.105C368.599 455.929 368.698 455.753 368.78 455.577L368.871 457.123L371.789 457.117C371.789 456.848 371.712 456.701 371.56 456.678C371.501 456.667 371.437 456.661 371.366 456.661ZM379.032 457.278C379.864 457.276 380.379 456.947 380.577 456.29C380.635 456.056 380.675 455.774 380.698 455.446L380.241 455.43C380.172 456.25 379.962 456.666 379.611 456.679C379.341 456.656 379.206 456.363 379.204 455.801L379.197 452.109C379.193 450.598 378.477 449.703 377.046 449.425C376.753 449.367 376.443 449.338 376.115 449.339C374.638 449.342 373.684 449.672 373.251 450.329C373.123 450.517 373.059 450.716 373.059 450.927C373.06 451.326 373.248 451.583 373.623 451.699C373.729 451.734 373.835 451.752 373.94 451.751C374.362 451.751 374.654 451.533 374.818 451.099C374.841 451.041 374.876 450.941 374.922 450.8C375.062 450.319 375.243 450.02 375.465 449.902C375.618 449.832 375.787 449.796 375.975 449.796C376.678 449.794 377.089 450.21 377.208 451.041C377.232 451.229 377.244 451.434 377.244 451.657L377.247 452.782C374.177 452.835 372.637 453.641 372.629 455.199C372.631 456.207 373.072 456.857 373.951 457.148C374.233 457.241 374.538 457.287 374.866 457.287C375.791 457.285 376.511 456.955 377.026 456.298C377.166 456.098 377.277 455.893 377.358 455.682C377.548 456.736 378.106 457.268 379.032 457.278ZM375.673 456.547C375.016 456.548 374.664 456.08 374.615 455.143C374.615 455.084 374.615 455.025 374.615 454.967C374.613 454.17 375.01 453.665 375.807 453.453C376.182 453.346 376.662 453.287 377.248 453.274L377.251 454.873C377.054 455.671 376.68 456.193 376.13 456.44C375.966 456.511 375.813 456.546 375.673 456.547ZM306.727 471.17L306.726 470.731L302.876 470.739L302.877 471.178L303.598 471.177L305.808 477.078C306.055 477.734 306.279 478.12 306.478 478.237C306.607 478.307 306.789 478.342 307.023 478.342L307.533 478.34L310.05 471.708C310.167 471.392 310.319 471.215 310.506 471.18C310.576 471.168 310.647 471.162 310.717 471.162C310.916 471.161 311.028 471.126 311.051 471.056C311.074 470.985 311.086 470.874 311.085 470.722L308.29 470.728L308.291 471.167L309.68 471.164L307.582 476.688L305.531 471.173L306.727 471.17ZM315.407 477.779L314.686 477.78L314.671 470.714L311.595 470.721L311.596 471.16L312.739 471.158L312.75 476.835C312.752 477.339 312.559 477.638 312.172 477.733C312.032 477.768 311.844 477.786 311.61 477.787L311.611 478.244L315.83 478.235C315.829 477.966 315.741 477.819 315.565 477.796C315.518 477.785 315.465 477.779 315.407 477.779ZM314.842 468.323C314.841 467.843 314.623 467.486 314.189 467.252C314.013 467.159 313.832 467.112 313.644 467.113C313.164 467.114 312.812 467.331 312.591 467.765C312.497 467.953 312.451 468.141 312.451 468.328C312.452 468.82 312.67 469.171 313.104 469.381C313.28 469.463 313.462 469.504 313.649 469.503C314.13 469.502 314.481 469.297 314.702 468.886C314.796 468.71 314.842 468.522 314.842 468.323ZM323.09 478.396C323.922 478.394 324.437 478.065 324.635 477.408C324.693 477.173 324.733 476.892 324.756 476.564L324.299 476.547C324.23 477.368 324.02 477.784 323.669 477.797C323.399 477.774 323.264 477.481 323.262 476.919L323.255 473.227C323.251 471.716 322.535 470.821 321.104 470.542C320.811 470.484 320.501 470.456 320.173 470.456C318.696 470.46 317.742 470.79 317.309 471.447C317.181 471.635 317.117 471.834 317.117 472.045C317.118 472.443 317.306 472.701 317.681 472.817C317.787 472.852 317.893 472.869 317.998 472.869C318.42 472.868 318.712 472.651 318.876 472.217C318.899 472.158 318.934 472.059 318.98 471.918C319.12 471.437 319.301 471.138 319.523 471.02C319.676 470.95 319.845 470.914 320.033 470.914C320.736 470.912 321.147 471.327 321.266 472.159C321.29 472.347 321.302 472.552 321.302 472.774L321.305 473.899C318.235 473.953 316.695 474.759 316.687 476.317C316.689 477.325 317.13 477.975 318.009 478.266C318.291 478.359 318.596 478.405 318.924 478.404C319.849 478.402 320.569 478.073 321.084 477.415C321.224 477.216 321.335 477.011 321.416 476.8C321.606 477.854 322.164 478.386 323.09 478.396ZM319.731 477.664C319.074 477.666 318.722 477.198 318.673 476.26C318.673 476.202 318.673 476.143 318.673 476.085C318.671 475.288 319.068 474.783 319.865 474.57C320.24 474.464 320.72 474.404 321.306 474.392L321.309 475.991C321.112 476.788 320.738 477.311 320.188 477.558C320.024 477.629 319.871 477.664 319.731 477.664ZM327.597 473.359C327.594 472.175 327.78 471.436 328.155 471.143C328.353 470.978 328.629 470.896 328.98 470.895C329.66 470.893 330.082 471.227 330.248 471.894C330.331 472.222 330.373 472.697 330.374 473.318C330.376 474.525 330.179 475.281 329.781 475.587C329.57 475.739 329.301 475.816 328.973 475.817C328.293 475.818 327.871 475.462 327.705 474.747C327.634 474.419 327.598 473.956 327.597 473.359ZM329.032 470.438C327.766 470.44 326.818 470.847 326.187 471.657C325.813 472.138 325.627 472.695 325.628 473.328C325.63 474.183 326.047 474.921 326.881 475.54C327.01 475.633 327.139 475.721 327.268 475.803C326.588 475.793 326.12 476.098 325.864 476.72C325.782 476.931 325.741 477.148 325.742 477.37C325.755 477.945 325.984 478.401 326.43 478.74C326.103 479.104 325.94 479.479 325.94 479.866C325.942 480.499 326.347 480.973 327.156 481.287C327.696 481.497 328.346 481.601 329.108 481.6C330.983 481.596 332.207 481.154 332.779 480.274C332.954 479.98 333.042 479.675 333.041 479.359C333.039 478.281 332.446 477.649 331.262 477.464C331.074 477.43 330.881 477.412 330.681 477.413L327.183 477.35C326.82 477.339 326.609 477.187 326.549 476.894C326.538 476.847 326.532 476.806 326.532 476.771C326.531 476.502 326.689 476.337 327.005 476.278C327.075 476.266 327.14 476.26 327.199 476.26L328.921 476.274L328.974 476.274C330.193 476.271 331.118 475.859 331.749 475.038C332.146 474.509 332.344 473.923 332.343 473.278C332.329 472.423 332.005 471.726 331.371 471.189C331.535 470.813 331.775 470.619 332.091 470.607C332.243 470.607 332.431 470.706 332.654 470.905C332.818 471.033 332.965 471.097 333.094 471.097C333.422 471.096 333.621 470.938 333.691 470.621C333.702 470.563 333.708 470.51 333.708 470.463C333.707 470.053 333.507 469.766 333.108 469.603C332.944 469.545 332.768 469.516 332.581 469.516C331.995 469.517 331.533 469.835 331.194 470.468C331.112 470.621 331.048 470.773 331.002 470.926C330.45 470.599 329.794 470.436 329.032 470.438ZM329.107 481.143C327.783 481.145 326.962 480.837 326.644 480.216C326.574 480.076 326.538 479.929 326.538 479.777C326.549 479.507 326.654 479.238 326.853 478.968C327.087 479.049 327.316 479.09 327.538 479.089L330.826 479.118C331.576 479.128 332.01 479.262 332.127 479.519C332.174 479.613 332.198 479.718 332.198 479.835C332.199 480.374 331.69 480.756 330.671 480.981C330.191 481.088 329.67 481.142 329.107 481.143ZM338.015 470.876C338.742 470.874 339.176 471.301 339.319 472.156C339.354 472.344 339.372 472.537 339.373 472.736C339.374 473.287 339.175 473.633 338.777 473.775C338.52 473.846 338.145 473.876 337.652 473.865L336.299 473.815C336.342 472.151 336.78 471.189 337.611 470.929C337.752 470.894 337.886 470.876 338.015 470.876ZM341.244 476.406L340.822 476.266C340.483 477.005 339.945 477.493 339.207 477.729C338.962 477.811 338.71 477.853 338.452 477.853C337.081 477.856 336.363 476.692 336.3 474.36C336.3 474.348 336.3 474.337 336.3 474.325L338.075 474.356C339.833 474.388 340.887 474.134 341.238 473.594C341.355 473.406 341.413 473.183 341.412 472.925C341.41 472 340.94 471.303 340.002 470.837C339.415 470.557 338.753 470.417 338.014 470.419C336.667 470.422 335.636 470.91 334.924 471.884C334.421 472.577 334.171 473.415 334.173 474.4C334.176 476.005 334.771 477.152 335.956 477.841C336.589 478.191 337.299 478.366 338.084 478.364C339.42 478.361 340.386 477.885 340.981 476.934C341.086 476.758 341.174 476.582 341.244 476.406ZM345.834 477.715L345.36 477.716L345.368 473.374C345.448 472.413 345.787 471.762 346.384 471.421C346.571 471.315 346.758 471.262 346.946 471.261C347.426 471.26 347.767 471.547 347.967 472.121C348.05 472.378 348.091 472.671 348.092 472.999L348.1 476.761C348.101 477.241 347.99 477.529 347.768 477.623C347.639 477.682 347.446 477.712 347.188 477.712L347.189 478.169L350.933 478.161C350.932 477.903 350.856 477.757 350.704 477.722C350.633 477.711 350.563 477.705 350.493 477.705L350.036 477.706L350.026 473.259L350.026 473.03C350.153 472.163 350.497 471.594 351.059 471.323C351.211 471.252 351.364 471.217 351.516 471.217C352.055 471.215 352.431 471.514 352.643 472.111C352.726 472.38 352.767 472.673 352.768 472.989L352.776 476.751C352.777 477.232 352.666 477.519 352.444 477.613C352.315 477.672 352.122 477.702 351.864 477.702L351.865 478.159L355.82 478.151C355.819 477.893 355.743 477.747 355.59 477.712C355.52 477.7 355.45 477.695 355.379 477.695L354.711 477.696L354.702 473.179C354.699 472.019 354.311 471.199 353.537 470.72C353.184 470.498 352.803 470.388 352.393 470.389C351.292 470.391 350.467 470.926 349.918 471.993C349.895 472.04 349.877 472.081 349.866 472.117C349.606 471.25 349.113 470.706 348.386 470.485C348.198 470.427 348.005 470.398 347.805 470.398C346.774 470.4 345.996 470.859 345.47 471.774C345.424 471.868 345.377 471.962 345.33 472.056L345.239 470.65L342.286 470.656L342.287 471.095L343.412 471.093L343.424 476.771C343.425 477.286 343.233 477.586 342.846 477.668C342.694 477.704 342.512 477.722 342.301 477.722L342.302 478.179L346.257 478.171C346.257 477.902 346.168 477.755 345.993 477.732C345.946 477.721 345.893 477.715 345.834 477.715Z" fill="#603E3E"/>
<path d="M46.7587 283.801L46.7577 283.326L44.6659 283.331L44.656 278.637L48.1189 278.63L48.1178 278.103L44.6549 278.11L44.6457 273.733L46.8957 273.728C47.8801 273.726 48.5551 274.293 48.9208 275.429C48.9325 275.441 48.9384 275.453 48.9384 275.464L49.2748 276.624L49.7319 276.623L49.6545 273.248L41.0763 273.266L41.0773 273.741L42.4836 273.738L42.5038 283.335L41.0975 283.338L41.0985 283.813L46.7587 283.801ZM54.1405 283.328L53.4198 283.33L53.4049 276.264L50.3288 276.27L50.3297 276.709L51.4723 276.707L51.4842 282.385C51.4853 282.889 51.2926 283.188 50.906 283.283C50.7655 283.318 50.578 283.336 50.3437 283.336L50.3446 283.793L54.5634 283.785C54.5628 283.515 54.4746 283.369 54.2988 283.346C54.2519 283.334 54.1991 283.328 54.1405 283.328ZM53.5757 273.873C53.5747 273.392 53.3571 273.035 52.9231 272.802C52.7471 272.708 52.5653 272.662 52.3778 272.662C51.8974 272.663 51.5463 272.881 51.3245 273.315C51.2312 273.502 51.1847 273.69 51.1851 273.878C51.1861 274.37 51.4036 274.721 51.8377 274.931C52.0136 275.013 52.1954 275.053 52.3829 275.053C52.8633 275.052 53.2145 274.846 53.4363 274.435C53.5296 274.259 53.5761 274.072 53.5757 273.873ZM58.9921 283.318L58.4472 283.319L58.4556 278.978C58.5357 278.04 58.8859 277.395 59.5062 277.042C59.7286 276.924 59.9511 276.865 60.1738 276.865C60.8301 276.863 61.2468 277.208 61.424 277.899C61.4831 278.11 61.5129 278.344 61.5134 278.602L61.5213 282.364C61.5224 282.856 61.3882 283.149 61.1189 283.243C60.9901 283.291 60.8026 283.314 60.5565 283.315L60.5575 283.772L64.5829 283.763C64.5823 283.506 64.5058 283.359 64.3534 283.325C64.2831 283.313 64.2128 283.307 64.1425 283.307L63.4569 283.309L63.4475 278.862C63.4446 277.479 62.9623 276.589 62.0005 276.193C61.6956 276.064 61.3673 276.001 61.0157 276.001C60.172 276.003 59.4579 276.339 58.8733 277.008C58.6863 277.231 58.5344 277.466 58.4178 277.712L58.3268 276.253L55.3737 276.259L55.3746 276.699L56.4996 276.696L56.5116 282.374C56.5127 282.89 56.3199 283.189 55.9334 283.272C55.7811 283.307 55.5995 283.325 55.3886 283.326L55.3895 283.783L59.4325 283.774C59.4319 283.517 59.3555 283.37 59.203 283.335C59.1327 283.324 59.0624 283.318 58.9921 283.318ZM71.7375 283.924C72.5695 283.922 73.0845 283.593 73.2823 282.937C73.3404 282.702 73.3808 282.421 73.4036 282.093L72.9465 282.076C72.8779 282.896 72.6679 283.313 72.3163 283.325C72.0468 283.302 71.9114 283.01 71.9102 282.447L71.9024 278.756C71.8992 277.244 71.1825 276.349 69.7522 276.071C69.4591 276.013 69.1485 275.984 68.8204 275.985C67.3439 275.988 66.3895 276.318 65.9573 276.975C65.8287 277.163 65.7647 277.363 65.7652 277.573C65.766 277.972 65.954 278.229 66.3293 278.346C66.4348 278.381 66.5403 278.398 66.6458 278.398C67.0677 278.397 67.3602 278.18 67.5233 277.746C67.5466 277.687 67.5816 277.587 67.6282 277.447C67.7678 276.966 67.9488 276.667 68.1712 276.549C68.3234 276.478 68.4932 276.443 68.6807 276.442C69.3839 276.441 69.7949 276.856 69.9138 277.688C69.9377 277.875 69.9498 278.08 69.9503 278.303L69.9527 279.428C66.8825 279.481 65.3431 280.287 65.3347 281.846C65.3368 282.854 65.7776 283.503 66.6572 283.794C66.9386 283.887 67.2434 283.934 67.5715 283.933C68.4973 283.931 69.2173 283.601 69.7315 282.944C69.8717 282.745 69.9826 282.539 70.0642 282.328C70.254 283.382 70.8117 283.914 71.7375 283.924ZM68.3785 283.193C67.7223 283.194 67.3698 282.726 67.3209 281.789C67.3208 281.73 67.3207 281.672 67.3205 281.613C67.3189 280.816 67.7162 280.312 68.5127 280.099C68.8874 279.993 69.3678 279.933 69.9537 279.92L69.9571 281.52C69.7595 282.317 69.3856 282.839 68.8354 283.087C68.6714 283.157 68.5192 283.193 68.3785 283.193ZM78.0467 283.278L77.1502 283.28L77.1272 272.311L73.84 272.318L73.841 272.775L75.1945 272.772L75.2146 282.3C75.2156 282.804 75.0405 283.109 74.6892 283.215C74.5135 283.262 74.2381 283.286 73.8631 283.287L73.8641 283.744L78.4871 283.734C78.4866 283.476 78.4101 283.33 78.2577 283.295C78.1874 283.284 78.117 283.278 78.0467 283.278ZM83.1268 283.267L82.4061 283.269L82.3912 276.203L79.315 276.209L79.316 276.648L80.4585 276.646L80.4705 282.324C80.4716 282.828 80.2788 283.127 79.8923 283.221C79.7518 283.257 79.5643 283.275 79.3299 283.275L79.3309 283.732L83.5496 283.724C83.5491 283.454 83.4609 283.308 83.285 283.285C83.2381 283.273 83.1854 283.267 83.1268 283.267ZM82.562 273.812C82.5609 273.331 82.3434 272.974 81.9093 272.741C81.7333 272.647 81.5516 272.601 81.3641 272.601C80.8836 272.602 80.5325 272.82 80.3108 273.254C80.2174 273.441 80.1709 273.629 80.1713 273.817C80.1724 274.309 80.3899 274.66 80.824 274.87C80.9999 274.952 81.1816 274.992 81.3691 274.992C81.8496 274.991 82.2007 274.785 82.4225 274.374C82.5159 274.198 82.5624 274.011 82.562 273.812ZM86.3611 283.243L90.9349 276.519L90.9341 276.149L84.729 276.162L84.5937 278.676L84.9804 278.676L85.5228 277.479C85.7912 276.928 86.1714 276.646 86.6636 276.633L89.0015 276.628L84.2344 283.335L84.2352 283.722L90.8973 283.708L90.9264 280.825L90.5396 280.826L90.2259 282.075C90.0165 282.837 89.5662 283.225 88.8748 283.238L88.9276 283.255L86.3611 283.243ZM95.7686 276.385C96.4951 276.384 96.9296 276.811 97.0721 277.666C97.1076 277.853 97.1256 278.047 97.126 278.246C97.1272 278.797 96.9287 279.143 96.5305 279.284C96.2729 279.355 95.8979 279.385 95.4057 279.374L94.0521 279.324C94.0955 277.66 94.5329 276.698 95.3644 276.439C95.5049 276.403 95.6397 276.386 95.7686 276.385ZM98.997 281.916L98.5749 281.776C98.2366 282.515 97.6985 283.002 96.9607 283.238C96.7148 283.321 96.463 283.362 96.2051 283.363C94.8341 283.366 94.1168 282.201 94.0533 279.869C94.0532 279.858 94.0532 279.846 94.0532 279.834L95.8286 279.866C97.5865 279.897 98.6407 279.643 98.9911 279.103C99.1079 278.915 99.166 278.693 99.1655 278.435C99.1635 277.509 98.6933 276.813 97.7548 276.346C97.1683 276.066 96.5059 275.927 95.7676 275.928C94.42 275.931 93.3897 276.42 92.6769 277.394C92.1745 278.086 91.9243 278.925 91.9264 279.909C91.9298 281.515 92.524 282.662 93.709 283.351C94.3426 283.701 95.0519 283.875 95.8371 283.873C97.173 283.871 98.1388 283.394 98.7345 282.444C98.8396 282.268 98.9271 282.092 98.997 281.916ZM106.488 283.359C107.274 283.357 107.759 283.093 107.946 282.565C107.981 282.448 107.998 282.33 107.998 282.213C107.996 281.651 107.626 281.177 106.887 280.792C106.723 280.71 106.465 280.593 106.113 280.442C105.21 280.045 104.606 279.683 104.3 279.356C103.983 278.981 103.824 278.548 103.823 278.056C103.821 277.13 104.324 276.49 105.331 276.137C105.776 275.983 106.273 275.906 106.824 275.905C107.68 275.903 108.383 276.066 108.935 276.393C108.934 276.041 109.027 275.848 109.215 275.812C109.273 275.8 109.332 275.794 109.39 275.794L109.395 277.991L108.868 277.993C108.819 276.926 108.232 276.388 107.106 276.379C106.321 276.381 105.836 276.628 105.649 277.12C105.602 277.249 105.579 277.378 105.58 277.507C105.581 277.999 105.933 278.426 106.637 278.788C106.789 278.858 107.036 278.969 107.376 279.121C108.303 279.517 108.919 279.885 109.224 280.224C109.576 280.622 109.753 281.09 109.754 281.629C109.756 282.625 109.242 283.294 108.212 283.636C107.79 283.778 107.321 283.849 106.806 283.85C105.821 283.852 104.995 283.661 104.326 283.276C104.327 283.58 104.251 283.756 104.099 283.803C104.028 283.815 103.946 283.821 103.853 283.821L103.847 281.15L104.409 281.148C104.436 282.613 105.129 283.35 106.488 283.359ZM114.753 276.345C115.479 276.344 115.914 276.771 116.056 277.626C116.092 277.813 116.11 278.007 116.11 278.206C116.112 278.757 115.913 279.103 115.515 279.244C115.257 279.315 114.882 279.345 114.39 279.334L113.036 279.285C113.08 277.62 113.517 276.659 114.349 276.399C114.489 276.364 114.624 276.346 114.753 276.345ZM117.981 281.876L117.559 281.736C117.221 282.475 116.683 282.962 115.945 283.198C115.699 283.281 115.447 283.322 115.189 283.323C113.818 283.326 113.101 282.161 113.038 279.829C113.038 279.818 113.038 279.806 113.038 279.794L114.813 279.826C116.571 279.857 117.625 279.603 117.975 279.063C118.092 278.875 118.15 278.653 118.15 278.395C118.148 277.469 117.678 276.773 116.739 276.306C116.153 276.026 115.49 275.887 114.752 275.888C113.404 275.891 112.374 276.38 111.661 277.354C111.159 278.046 110.909 278.885 110.911 279.869C110.914 281.475 111.508 282.622 112.693 283.311C113.327 283.661 114.036 283.835 114.821 283.834C116.157 283.831 117.123 283.354 117.719 282.404C117.824 282.228 117.911 282.052 117.981 281.876ZM127.722 283.174L127.037 283.175L127.022 276.109L124.034 276.115L124.035 276.554L125.089 276.552L125.081 280.788C125.024 281.726 124.686 282.383 124.065 282.759C123.831 282.889 123.597 282.954 123.363 282.954C122.589 282.956 122.143 282.517 122.024 281.639C122 281.486 121.988 281.334 121.988 281.182L121.977 276.119L118.918 276.126L118.919 276.565L120.044 276.563L120.054 280.905C120.069 282.838 120.909 283.809 122.573 283.817C123.523 283.815 124.278 283.415 124.838 282.617C124.955 282.441 125.054 282.265 125.136 282.089L125.227 283.636L128.145 283.63C128.145 283.36 128.068 283.214 127.916 283.191C127.857 283.179 127.793 283.173 127.722 283.174ZM63.1742 307.649L63.1667 304.099C63.66 304.648 64.3755 304.928 65.313 304.938C66.4263 304.935 67.3336 304.506 68.0349 303.649C68.6544 302.886 68.9629 301.924 68.9605 300.764C68.9574 299.334 68.5392 298.281 67.7058 297.603C67.201 297.194 66.6205 296.99 65.9642 296.991C64.9916 296.993 64.213 297.358 63.6286 298.086C63.4066 298.368 63.2373 298.673 63.1208 299.001L63.0292 297.243L60.1112 297.249L60.1122 297.689L61.2196 297.687L61.2386 306.704C61.2396 307.196 61.0762 307.49 60.7482 307.584C60.596 307.631 60.391 307.655 60.1331 307.656L60.1341 308.113L64.6165 308.103C64.616 307.845 64.5395 307.699 64.3871 307.664C64.3167 307.653 64.2464 307.647 64.1761 307.647L63.1742 307.649ZM65.1573 297.801C66.2707 297.822 66.8354 298.888 66.8516 300.997C66.8558 303.001 66.3836 304.145 65.435 304.428C65.3061 304.463 65.1655 304.481 65.0132 304.481C64.2984 304.483 63.776 304.068 63.4461 303.237C63.2458 302.71 63.1448 302.077 63.1433 301.339C63.1402 299.851 63.4778 298.801 64.1562 298.19C64.4603 297.932 64.7941 297.802 65.1573 297.801ZM76.3696 304.915C77.2016 304.913 77.7166 304.584 77.9144 303.927C77.9725 303.692 78.0129 303.411 78.0357 303.083L77.5786 303.066C77.51 303.887 77.3 304.303 76.9484 304.316C76.6788 304.293 76.5435 304 76.5423 303.438L76.5345 299.746C76.5313 298.234 75.8146 297.339 74.3843 297.061C74.0912 297.003 73.7806 296.975 73.4525 296.975C71.9759 296.978 71.0215 297.309 70.5893 297.966C70.4608 298.153 70.3968 298.353 70.3972 298.564C70.3981 298.962 70.5861 299.22 70.9614 299.336C71.0669 299.371 71.1724 299.388 71.2779 299.388C71.6998 299.387 71.9923 299.17 72.1554 298.736C72.1787 298.677 72.2137 298.578 72.2603 298.437C72.3999 297.956 72.5809 297.657 72.8033 297.539C72.9555 297.469 73.1253 297.433 73.3128 297.433C74.016 297.431 74.427 297.846 74.5459 298.678C74.5698 298.866 74.5819 299.071 74.5824 299.293L74.5847 300.418C71.5145 300.472 69.9752 301.278 69.9668 302.836C69.9689 303.844 70.4097 304.493 71.2892 304.785C71.5707 304.878 71.8755 304.924 72.2036 304.923C73.1294 304.921 73.8494 304.592 74.3636 303.934C74.5038 303.735 74.6147 303.53 74.6963 303.318C74.886 304.373 75.4438 304.905 76.3696 304.915ZM73.0106 304.183C72.3544 304.185 72.0018 303.717 71.953 302.779C71.9529 302.721 71.9527 302.662 71.9526 302.603C71.9509 301.807 72.3483 301.302 73.1447 301.089C73.5195 300.983 73.9999 300.923 74.5858 300.91L74.5891 302.51C74.3916 303.307 74.0177 303.83 73.4674 304.077C73.3035 304.148 73.1513 304.183 73.0106 304.183ZM78.6992 300.99C78.7026 302.595 79.3085 303.731 80.517 304.396C81.1388 304.735 81.854 304.903 82.6626 304.901C83.8813 304.899 84.8121 304.51 85.455 303.735C85.6538 303.5 85.8056 303.242 85.9104 302.961L85.4531 302.839C85.0915 303.613 84.4831 304.101 83.6281 304.302C83.4056 304.361 83.1712 304.39 82.9252 304.391C81.5423 304.37 80.8426 303.235 80.8262 300.985C80.8217 298.841 81.2938 297.656 82.2425 297.431C82.3831 297.408 82.5178 297.396 82.6468 297.395C83.1975 297.394 83.5379 297.634 83.6678 298.114C83.6915 298.219 83.7152 298.378 83.7391 298.588C83.8222 299.104 83.9635 299.432 84.1631 299.572C84.3156 299.665 84.5091 299.718 84.7435 299.729C85.2708 299.728 85.5985 299.522 85.7265 299.112C85.7498 299.018 85.7613 298.93 85.7611 298.848C85.76 298.321 85.4368 297.864 84.7915 297.479C84.1931 297.128 83.4779 296.954 82.6458 296.956C81.3333 296.959 80.3089 297.418 79.5726 298.334C78.9881 299.05 78.697 299.935 78.6992 300.99ZM88.7011 300.916C88.6973 299.135 89.0114 298.038 89.6434 297.627C89.9008 297.474 90.1995 297.397 90.5394 297.396C91.43 297.395 91.9935 297.897 92.23 298.905C92.3483 299.396 92.4082 300.041 92.4099 300.838C92.4139 302.724 92.0588 303.862 91.3448 304.25C91.1107 304.368 90.8471 304.427 90.5542 304.428C89.6752 304.429 89.1175 303.927 88.8811 302.919C88.7628 302.416 88.7028 301.748 88.7011 300.916ZM90.6087 296.939C89.2728 296.942 88.219 297.401 87.4475 298.317C86.8631 299.021 86.5719 299.866 86.574 300.85C86.5768 302.209 87.0595 303.275 88.0221 304.046C88.7264 304.607 89.5532 304.887 90.5024 304.885C91.8032 304.882 92.8393 304.411 93.6107 303.472C94.2186 302.732 94.5214 301.853 94.5193 300.833C94.5164 299.462 94.022 298.414 93.0361 297.69C92.3553 297.187 91.5462 296.937 90.6087 296.939ZM95.3915 297.685L96.6044 297.682L96.614 302.253C96.7231 303.952 97.5159 304.829 98.9926 304.884C99.9184 304.883 100.545 304.512 100.871 303.773C100.988 303.515 101.081 303.204 101.15 302.841L100.676 302.772C100.42 303.815 100.005 304.343 99.431 304.356C98.9388 304.357 98.651 304.024 98.5675 303.356C98.5556 303.239 98.5495 303.122 98.5492 303.005L98.538 297.678L100.999 297.673L100.998 297.216L98.537 297.221L98.5328 295.182L96.5999 295.555L96.6035 297.225L95.3906 297.228L95.3915 297.685ZM105.657 297.365C106.383 297.363 106.818 297.79 106.96 298.645C106.996 298.832 107.014 299.026 107.014 299.225C107.015 299.776 106.817 300.122 106.418 300.263C106.161 300.334 105.786 300.364 105.294 300.354L103.94 300.304C103.983 298.64 104.421 297.678 105.252 297.418C105.393 297.383 105.528 297.365 105.657 297.365ZM108.885 302.895L108.463 302.755C108.124 303.494 107.586 303.982 106.849 304.218C106.603 304.3 106.351 304.342 106.093 304.342C104.722 304.345 104.005 303.181 103.941 300.849C103.941 300.837 103.941 300.825 103.941 300.813L105.717 300.845C107.474 300.876 108.529 300.622 108.879 300.082C108.996 299.895 109.054 299.672 109.053 299.414C109.051 298.488 108.581 297.792 107.643 297.325C107.056 297.045 106.394 296.906 105.656 296.908C104.308 296.91 103.278 297.399 102.565 298.373C102.062 299.065 101.812 299.904 101.814 300.888C101.818 302.494 102.412 303.641 103.597 304.33C104.23 304.68 104.94 304.854 105.725 304.853C107.061 304.85 108.027 304.373 108.622 303.423C108.727 303.247 108.815 303.071 108.885 302.895Z" fill="#603E3E"/>
<path d="M17.0011 107.621L16.9238 104.317L8.34568 104.335L8.34668 104.809L9.75293 104.806L9.77313 114.404L8.36688 114.407L8.36788 114.881L16.946 114.863L17.0093 111.559L16.5523 111.56L16.203 112.65C15.9003 113.565 15.4444 114.117 14.8354 114.305C14.6363 114.364 14.4196 114.394 14.1852 114.395L11.9352 114.399L11.9254 109.706L15.3882 109.699L15.3871 109.171L11.9242 109.179L11.915 104.802L14.165 104.797C15.0674 104.795 15.707 105.262 16.084 106.199C16.1311 106.305 16.1723 106.416 16.2077 106.533L16.544 107.622L17.0011 107.621ZM21.252 114.538C22.0371 114.536 22.5229 114.272 22.7093 113.744C22.7442 113.627 22.7615 113.509 22.7613 113.392C22.7601 112.83 22.3899 112.356 21.6508 111.971C21.4866 111.889 21.2286 111.772 20.8767 111.621C19.9735 111.224 19.3692 110.862 19.0638 110.535C18.7466 110.16 18.5875 109.727 18.5865 109.235C18.5845 108.309 19.0871 107.669 20.0942 107.316C20.5392 107.162 21.037 107.085 21.5878 107.084C22.4433 107.082 23.1468 107.245 23.6982 107.572C23.6975 107.22 23.7908 107.027 23.9783 106.991C24.0368 106.979 24.0954 106.973 24.154 106.973L24.1586 109.17L23.6313 109.172C23.5822 108.105 22.9951 107.567 21.8701 107.558C21.0849 107.56 20.5991 107.807 20.4126 108.299C20.366 108.428 20.3429 108.557 20.3431 108.686C20.3442 109.178 20.6966 109.605 21.4005 109.967C21.553 110.037 21.7994 110.148 22.1395 110.3C23.0661 110.696 23.6821 111.064 23.9875 111.403C24.3399 111.801 24.5167 112.269 24.5179 112.808C24.5199 113.804 24.0057 114.474 22.9752 114.816C22.5536 114.957 22.085 115.028 21.5694 115.029C20.585 115.031 19.7584 114.84 19.0897 114.455C19.0903 114.759 19.0145 114.935 18.8623 114.982C18.792 114.994 18.71 115 18.6162 115L18.6106 112.329L19.1731 112.327C19.1996 113.792 19.8926 114.529 21.252 114.538ZM25.6744 111.101C25.6778 112.706 26.2837 113.842 27.4921 114.507C28.1139 114.846 28.8291 115.014 29.6377 115.012C30.8565 115.01 31.7873 114.621 32.4302 113.846C32.6289 113.612 32.7807 113.353 32.8856 113.072L32.4283 112.95C32.0667 113.724 31.4583 114.212 30.6033 114.413C30.3807 114.472 30.1464 114.502 29.9003 114.502C28.5175 114.482 27.8178 113.346 27.8014 111.096C27.7968 108.952 28.269 107.767 29.2177 107.543C29.3583 107.519 29.493 107.507 29.6219 107.507C30.1727 107.505 30.5131 107.745 30.643 108.225C30.6666 108.331 30.6904 108.489 30.7143 108.7C30.7974 109.215 30.9387 109.543 31.1382 109.683C31.2908 109.777 31.4843 109.829 31.7186 109.84C32.246 109.839 32.5737 109.633 32.7017 109.223C32.725 109.129 32.7365 109.041 32.7363 108.959C32.7352 108.432 32.412 107.975 31.7666 107.59C31.1683 107.24 30.453 107.065 29.621 107.067C28.3085 107.07 27.2841 107.529 26.5477 108.445C25.9633 109.161 25.6722 110.046 25.6744 111.101ZM35.6762 111.027C35.6725 109.246 35.9866 108.149 36.6185 107.738C36.876 107.585 37.1747 107.508 37.5145 107.508C38.4052 107.506 38.9687 108.008 39.2052 109.016C39.3234 109.508 39.3834 110.152 39.3851 110.949C39.389 112.836 39.034 113.973 38.32 114.361C38.0858 114.479 37.8223 114.538 37.5293 114.539C36.6504 114.541 36.0927 114.038 35.8562 113.031C35.738 112.527 35.678 111.859 35.6762 111.027ZM37.5839 107.05C36.248 107.053 35.1942 107.512 34.4227 108.428C33.8383 109.132 33.5471 109.977 33.5491 110.961C33.552 112.321 34.0347 113.386 34.9973 114.157C35.7016 114.718 36.5283 114.998 37.4776 114.996C38.7783 114.993 39.8145 114.522 40.5859 113.583C41.1937 112.844 41.4966 111.964 41.4944 110.945C41.4915 109.573 40.9972 108.526 40.0113 107.801C39.3305 107.299 38.5214 107.048 37.5839 107.05ZM46.6344 114.344L45.7379 114.346L45.7148 103.377L42.4277 103.384L42.4287 103.841L43.7822 103.838L43.8023 113.365C43.8033 113.869 43.6282 114.174 43.2768 114.281C43.1012 114.328 42.8258 114.352 42.4508 114.353L42.4518 114.81L47.0748 114.8C47.0743 114.542 46.9978 114.396 46.8454 114.361C46.775 114.349 46.7047 114.344 46.6344 114.344ZM51.5035 114.334L50.9235 114.335L50.9149 110.257C50.9127 109.214 51.2452 108.498 51.9123 108.11C52.1464 107.981 52.3807 107.916 52.615 107.915C53.2947 107.914 53.7291 108.276 53.9181 109.002C53.9654 109.201 53.9893 109.424 53.9898 109.67L53.9976 113.379C53.9986 113.86 53.9114 114.147 53.7358 114.241C53.607 114.3 53.4078 114.33 53.1383 114.33L53.1393 114.787L57.0416 114.779C57.0411 114.521 56.9646 114.375 56.8122 114.34C56.7418 114.328 56.6715 114.323 56.6012 114.323L55.9332 114.324L55.9239 109.877C55.9209 108.482 55.4444 107.587 54.4944 107.191C54.2012 107.074 53.8846 107.016 53.5448 107.017C52.5956 107.019 51.8405 107.372 51.2794 108.076C51.1275 108.288 51.0049 108.505 50.9117 108.727L50.9004 103.366L47.8418 103.373L47.8428 103.83L48.9678 103.827L48.9879 113.39C48.989 113.917 48.7846 114.222 48.3746 114.305C48.234 114.329 48.0641 114.341 47.8649 114.341L47.8658 114.798L51.944 114.79C51.9434 114.532 51.8669 114.386 51.7145 114.351C51.6442 114.339 51.5739 114.333 51.5035 114.334ZM64.2138 114.94C65.0459 114.938 65.5608 114.609 65.7586 113.952C65.8167 113.718 65.8572 113.436 65.8799 113.108L65.4228 113.091C65.3542 113.912 65.1442 114.328 64.7926 114.341C64.5231 114.318 64.3877 114.025 64.3865 113.463L64.3787 109.771C64.3756 108.26 63.6588 107.365 62.2285 107.086C61.9355 107.028 61.6248 107 61.2967 107C59.8202 107.004 58.8658 107.334 58.4336 107.991C58.3051 108.179 58.241 108.378 58.2415 108.589C58.2423 108.987 58.4303 109.245 58.8056 109.361C58.9111 109.396 59.0166 109.413 59.1221 109.413C59.544 109.412 59.8365 109.195 59.9996 108.761C60.023 108.702 60.0579 108.603 60.1045 108.462C60.2441 107.981 60.4251 107.682 60.6475 107.564C60.7997 107.494 60.9696 107.458 61.1571 107.458C61.8602 107.456 62.2712 107.871 62.3902 108.703C62.414 108.891 62.4261 109.096 62.4266 109.318L62.429 110.443C59.3588 110.497 57.8194 111.303 57.811 112.861C57.8131 113.869 58.2539 114.519 59.1335 114.81C59.4149 114.903 59.7197 114.949 60.0478 114.948C60.9736 114.946 61.6936 114.617 62.2079 113.96C62.3481 113.76 62.459 113.555 62.5405 113.344C62.7303 114.398 63.288 114.93 64.2138 114.94ZM60.8549 114.208C60.1986 114.21 59.8461 113.742 59.7972 112.804C59.7971 112.746 59.797 112.687 59.7968 112.629C59.7952 111.832 60.1925 111.327 60.989 111.114C61.3638 111.008 61.8441 110.949 62.43 110.936L62.4334 112.535C62.2358 113.332 61.8619 113.855 61.3117 114.102C61.1478 114.173 60.9955 114.208 60.8549 114.208ZM78.4859 114.277L77.8004 114.278L77.7855 107.212L74.7972 107.218L74.7981 107.658L75.8528 107.655L75.8442 111.892C75.7875 112.829 75.4491 113.486 74.8288 113.863C74.5947 113.992 74.3604 114.057 74.1261 114.057C73.3526 114.059 72.9064 113.621 72.7873 112.742C72.7636 112.59 72.7516 112.437 72.7512 112.285L72.7406 107.222L69.682 107.229L69.6829 107.668L70.8079 107.666L70.817 112.008C70.8328 113.941 71.6728 114.912 73.3369 114.92C74.2861 114.918 75.0411 114.518 75.6019 113.72C75.7187 113.544 75.818 113.368 75.8996 113.192L75.9908 114.739L78.9087 114.733C78.9082 114.463 78.8317 114.317 78.6793 114.294C78.6207 114.282 78.5562 114.277 78.4859 114.277ZM83.2496 114.267L82.775 114.268L82.7834 109.926C82.8634 108.965 83.2019 108.314 83.7988 107.973C83.9861 107.867 84.1735 107.814 84.361 107.813C84.8415 107.812 85.1819 108.099 85.3823 108.672C85.4649 108.93 85.5065 109.223 85.5072 109.551L85.5151 113.313C85.5162 113.793 85.4054 114.081 85.183 114.175C85.0542 114.234 84.8609 114.263 84.6031 114.264L84.604 114.721L88.3482 114.713C88.3476 114.455 88.2712 114.309 88.1187 114.274C88.0484 114.263 87.9781 114.257 87.9078 114.257L87.4507 114.258L87.4414 109.811L87.4409 109.582C87.568 108.715 87.9125 108.146 88.4744 107.875C88.6266 107.804 88.7789 107.769 88.9312 107.768C89.4703 107.767 89.8459 108.065 90.0581 108.663C90.1407 108.932 90.1823 109.225 90.183 109.541L90.1909 113.303C90.1919 113.783 90.0812 114.071 89.8587 114.165C89.73 114.224 89.5367 114.254 89.2788 114.254L89.2798 114.711L93.2349 114.703C93.2343 114.445 93.1579 114.299 93.0054 114.264C92.9351 114.252 92.8648 114.247 92.7945 114.247L92.1265 114.248L92.117 109.731C92.1145 108.57 91.7261 107.751 90.9517 107.272C90.5996 107.05 90.2185 106.94 89.8084 106.94C88.7068 106.943 87.8818 107.478 87.3332 108.545C87.3099 108.592 87.2924 108.633 87.2808 108.668C87.0211 107.802 86.5278 107.258 85.8008 107.037C85.6131 106.979 85.4197 106.95 85.2205 106.95C84.1893 106.952 83.4109 107.411 82.8855 108.326C82.8388 108.42 82.7921 108.514 82.7455 108.608L82.6546 107.202L79.7015 107.208L79.7024 107.647L80.8274 107.645L80.8394 113.323C80.8405 113.838 80.6477 114.137 80.2612 114.22C80.1089 114.256 79.9273 114.274 79.7164 114.274L79.7173 114.731L83.6724 114.723C83.6718 114.453 83.5836 114.307 83.4078 114.284C83.3609 114.272 83.3082 114.267 83.2496 114.267ZM29.4081 135.38L28.1249 135.383L28.1169 131.568C28.1966 130.443 28.5114 129.687 29.0614 129.299C29.1901 129.217 29.3013 129.175 29.3951 129.175C29.5474 129.175 29.7001 129.309 29.853 129.578C30.053 129.953 30.2644 130.175 30.4872 130.245C30.5927 130.28 30.7041 130.297 30.8213 130.297C31.2431 130.296 31.5415 130.09 31.7165 129.68C31.7748 129.551 31.8038 129.416 31.8035 129.275C31.8023 128.713 31.5262 128.362 30.9751 128.223C30.8344 128.188 30.6938 128.17 30.5531 128.171C29.8383 128.172 29.2002 128.467 28.639 129.054C28.3934 129.324 28.2007 129.629 28.0608 129.969L27.9519 128.317L25.0515 128.323L25.0524 128.762L26.1598 128.76L26.1718 134.438C26.1728 134.942 25.9977 135.241 25.6463 135.335C25.4941 135.371 25.3007 135.389 25.0664 135.389L25.0673 135.846L29.831 135.836C29.8304 135.567 29.7422 135.42 29.5664 135.397C29.5195 135.386 29.4667 135.38 29.4081 135.38ZM34.6042 132.029C34.6005 130.248 34.9146 129.152 35.5465 128.74C35.804 128.587 36.1027 128.511 36.4425 128.51C37.3331 128.508 37.8967 129.011 38.1332 130.018C38.2514 130.51 38.3114 131.154 38.3131 131.951C38.317 133.838 37.962 134.975 37.248 135.364C37.0138 135.481 36.7503 135.54 36.4573 135.541C35.5784 135.543 35.0207 135.04 34.7842 134.033C34.666 133.529 34.606 132.861 34.6042 132.029ZM36.5119 128.053C35.1759 128.055 34.1222 128.515 33.3507 129.43C32.7663 130.135 32.4751 130.979 32.4771 131.964C32.48 133.323 32.9627 134.388 33.9253 135.16C34.6296 135.721 35.4563 136 36.4056 135.998C37.7063 135.996 38.7425 135.525 39.5139 134.585C40.1217 133.846 40.4246 132.966 40.4224 131.947C40.4195 130.576 39.9251 129.528 38.9392 128.803C38.2585 128.301 37.4494 128.051 36.5119 128.053ZM41.2947 128.798L42.5076 128.796L42.5172 133.366C42.6263 135.065 43.4191 135.942 44.8958 135.998C45.8216 135.996 46.4478 135.626 46.7743 134.887C46.891 134.629 46.9841 134.318 47.0536 133.954L46.5789 133.885C46.3232 134.929 45.9083 135.457 45.3341 135.47C44.842 135.471 44.5541 135.137 44.4707 134.47C44.4587 134.352 44.4526 134.235 44.4524 134.118L44.4412 128.792L46.9021 128.787L46.9012 128.33L44.4402 128.335L44.4359 126.296L42.5031 126.669L42.5066 128.339L41.2937 128.341L41.2947 128.798ZM51.5597 128.478C52.2862 128.477 52.7207 128.903 52.8632 129.759C52.8987 129.946 52.9167 130.139 52.9171 130.338C52.9183 130.889 52.7198 131.235 52.3216 131.377C52.064 131.448 51.689 131.478 51.1968 131.467L49.8432 131.417C49.8866 129.753 50.324 128.791 51.1555 128.532C51.296 128.496 51.4308 128.478 51.5597 128.478ZM54.7881 134.008L54.366 133.869C54.0277 134.608 53.4896 135.095 52.7518 135.331C52.5059 135.414 52.2541 135.455 51.9962 135.456C50.6252 135.459 49.9079 134.294 49.8444 131.962C49.8443 131.95 49.8443 131.939 49.8443 131.927L51.6197 131.958C53.3776 131.99 54.4318 131.736 54.7822 131.196C54.899 131.008 54.9571 130.785 54.9566 130.528C54.9546 129.602 54.4844 128.905 53.5459 128.439C52.9594 128.159 52.297 128.019 51.5587 128.021C50.2111 128.024 49.1808 128.512 48.468 129.487C47.9656 130.179 47.7154 131.017 47.7175 132.002C47.7209 133.607 48.3151 134.754 49.5001 135.443C50.1337 135.794 50.843 135.968 51.6282 135.966C52.9641 135.963 53.9299 135.487 54.5256 134.536C54.6307 134.36 54.7182 134.184 54.7881 134.008ZM59.7128 135.316L58.9921 135.318L58.9772 128.251L55.901 128.258L55.9019 128.697L57.0445 128.695L57.0565 134.373C57.0575 134.877 56.8648 135.176 56.4783 135.27C56.3377 135.306 56.1503 135.324 55.9159 135.324L55.9169 135.781L60.1356 135.773C60.135 135.503 60.0468 135.357 59.871 135.334C59.8241 135.322 59.7714 135.316 59.7128 135.316ZM59.1479 125.861C59.1469 125.38 58.9294 125.023 58.4953 124.79C58.3193 124.696 58.1376 124.65 57.9501 124.65C57.4696 124.651 57.1185 124.869 56.8968 125.303C56.8034 125.49 56.7569 125.678 56.7573 125.866C56.7584 126.358 56.9759 126.709 57.4099 126.919C57.5859 127.001 57.7676 127.041 57.9551 127.041C58.4356 127.04 58.7867 126.834 59.0085 126.423C59.1019 126.247 59.1484 126.06 59.1479 125.861ZM65.3202 135.305L64.037 135.307L64.0289 131.493C64.1086 130.368 64.4234 129.611 64.9734 129.223C65.1021 129.141 65.2134 129.1 65.3071 129.1C65.4595 129.099 65.6121 129.234 65.765 129.503C65.965 129.877 66.1764 130.1 66.3992 130.169C66.5048 130.204 66.6161 130.222 66.7333 130.222C67.1552 130.221 67.4536 130.015 67.6285 129.604C67.6868 129.475 67.7158 129.341 67.7155 129.2C67.7143 128.637 67.4382 128.286 66.8871 128.147C66.7464 128.112 66.6058 128.095 66.4652 128.095C65.7503 128.097 65.1123 128.391 64.551 128.978C64.3055 129.248 64.1128 129.553 63.9728 129.893L63.8639 128.241L60.9635 128.247L60.9644 128.687L62.0719 128.684L62.0838 134.362C62.0849 134.866 61.9097 135.165 61.5584 135.26C61.4061 135.295 61.2128 135.313 60.9784 135.314L60.9793 135.771L65.743 135.761C65.7424 135.491 65.6542 135.345 65.4784 135.322C65.4315 135.31 65.3788 135.304 65.3202 135.305ZM70.5163 131.954C70.5125 130.173 70.8266 129.076 71.4586 128.665C71.716 128.512 72.0147 128.435 72.3546 128.434C73.2452 128.432 73.8087 128.935 74.0452 129.942C74.1635 130.434 74.2234 131.079 74.2251 131.876C74.2291 133.762 73.874 134.9 73.16 135.288C72.9259 135.406 72.6623 135.465 72.3694 135.466C71.4905 135.467 70.9328 134.965 70.6963 133.957C70.578 133.454 70.518 132.786 70.5163 131.954ZM72.4239 127.977C71.088 127.98 70.0342 128.439 69.2627 129.355C68.6783 130.059 68.3871 130.904 68.3892 131.888C68.392 133.247 68.8747 134.313 69.8373 135.084C70.5416 135.645 71.3684 135.925 72.3176 135.923C73.6184 135.92 74.6545 135.449 75.4259 134.51C76.0338 133.77 76.3366 132.891 76.3345 131.871C76.3316 130.5 75.8372 129.452 74.8513 128.728C74.1705 128.225 73.3614 127.975 72.4239 127.977Z" fill="#603E3E"/>
<path d="M105.131 46.5448C105.127 44.2271 103.873 42.3678 101.37 40.9668C100.874 40.7074 99.3495 40.0205 96.7951 38.9061C94.4753 37.9214 93.0148 36.9088 92.4137 35.8684C92.0999 35.2962 91.9424 34.6845 91.941 34.0335C91.9374 32.2887 92.7812 31.076 94.4724 30.3953C95.201 30.1073 96.008 29.9624 96.8934 29.9605C99.0809 29.9559 100.749 30.6946 101.898 32.1766C102.655 33.1906 103.023 34.4268 103 35.8852L104.172 35.8827L104.157 29.0468C103.532 29.0481 103.168 29.2442 103.065 29.6351C103.013 29.8175 102.987 30.0649 102.988 30.3774C101.137 29.3657 99.0526 28.8622 96.7349 28.8671C93.9224 28.873 91.7365 29.6589 90.1773 31.2247C89.1379 32.3206 88.6198 33.5978 88.6229 35.0561C88.6275 37.2436 89.8552 39.0249 92.306 40.3999C92.7492 40.6334 94.235 41.2943 96.7633 42.3827C99.1092 43.4194 100.596 44.471 101.223 45.5374C101.563 46.1356 101.734 46.7863 101.735 47.4895C101.739 49.3124 100.856 50.6293 99.0871 51.4403C98.2545 51.8067 97.3304 51.9909 96.3148 51.9931C92.3303 51.9494 90.1116 49.5191 89.6588 44.7024L88.4869 44.7048L88.5039 52.7908C89.1289 52.7894 89.4931 52.6064 89.5965 52.2416C89.6482 52.0331 89.6734 51.6555 89.6723 51.1086C91.6803 52.4325 93.9603 53.0918 96.5124 53.0864C99.5072 53.0801 101.823 52.2679 103.46 50.6499C104.578 49.5017 105.135 48.1333 105.131 46.5448ZM116.79 36.6374C118.613 36.6336 119.826 37.3993 120.428 38.9345C120.637 39.4288 120.743 39.9625 120.744 40.5354C120.747 41.8374 120.123 42.633 118.874 42.9221C118.223 43.0537 117.299 43.1077 116.101 43.0842L111.96 42.9757C112.084 39.9807 113.056 38.0255 114.877 37.1102C115.476 36.7964 116.113 36.6389 116.79 36.6374ZM123.613 48.8887L122.636 48.5392C121.728 50.5203 120.259 51.6432 118.229 51.9079C117.968 51.9345 117.721 51.948 117.487 51.9485C114.752 51.9543 113.03 50.3303 112.32 47.0765C112.11 46.1655 111.991 45.1632 111.962 44.0695L116.65 44.1377C119.827 44.1831 121.871 43.8794 122.781 43.2264C123.483 42.7041 123.833 41.9612 123.831 40.9976C123.827 39.2268 122.926 37.8224 121.127 36.7846C119.849 36.032 118.377 35.6575 116.71 35.661C113.455 35.6679 111.127 37.027 109.727 39.7382C109 41.146 108.639 42.7353 108.643 44.5062C108.65 47.7353 109.813 50.1287 112.134 51.6863C113.517 52.5949 115.093 53.0473 116.864 53.0436C119.676 53.0376 121.745 52.0177 123.068 49.9836C123.276 49.6186 123.458 49.2536 123.613 48.8887ZM134.009 51.6403L132.252 51.644L132.234 43.2065C132.307 40.9147 133.098 39.2073 134.606 38.0843C135.308 37.562 136.011 37.3001 136.714 37.2986C138.016 37.2959 138.916 38.0101 139.413 39.4414C139.623 40.0659 139.729 40.7688 139.73 41.5501L139.747 49.2845C139.749 50.4824 139.464 51.1991 138.892 51.4347C138.528 51.5657 137.903 51.6321 137.017 51.634L137.019 52.6105L145.418 52.5928C145.417 52.0199 145.221 51.7078 144.83 51.6566C144.726 51.6307 144.595 51.618 144.439 51.6183L142.681 51.622L142.661 41.9346L142.66 41.6221C143.073 39.7201 143.995 38.3901 145.425 37.6318C145.972 37.3703 146.492 37.239 146.987 37.2379C148.315 37.2351 149.254 37.9233 149.804 39.3023C150.066 39.9528 150.197 40.6947 150.199 41.5281L150.215 49.2624C150.218 50.4603 149.933 51.1771 149.361 51.4127C148.996 51.5436 148.371 51.6101 147.486 51.6119L147.488 52.5885L156.121 52.5703C156.12 51.9974 155.924 51.6853 155.533 51.634C155.429 51.6082 155.298 51.5955 155.142 51.5958L153.15 51.6L153.13 41.9125C153.124 39.2302 152.248 37.3571 150.501 36.293C149.718 35.8259 148.872 35.5933 147.96 35.5953C145.981 35.5994 144.394 36.5272 143.2 38.3787C142.889 38.8481 142.629 39.3435 142.422 39.8647C141.949 37.8084 140.918 36.4825 139.328 35.8869C138.859 35.7056 138.377 35.6154 137.882 35.6165C136.007 35.6204 134.459 36.4179 133.239 38.0091C132.797 38.5829 132.447 39.2217 132.188 39.9253L132.023 36.0194L126.359 36.0313L126.361 37.0079L129.291 37.0017L129.317 49.3064C129.32 50.5043 128.983 51.2212 128.306 51.457C127.916 51.588 127.278 51.6545 126.392 51.6563L126.394 52.6329L134.988 52.6148C134.987 52.0679 134.791 51.7558 134.4 51.6785C134.27 51.6528 134.14 51.64 134.009 51.6403ZM176.668 52.9177C178.96 52.9129 180.885 52.0494 182.444 50.3274C183.899 48.6577 184.624 46.5468 184.618 43.9947C184.612 41.1301 183.826 38.8922 182.261 37.2809C181.086 36.1115 179.64 35.5286 177.921 35.5322C175.082 35.5382 173.067 36.8185 171.874 39.3731C171.745 39.6077 171.641 39.8423 171.563 40.0768L171.536 27.1472L165.677 27.1595L165.679 28.1361L168.608 28.1299L168.653 49.2236C168.655 50.4215 168.318 51.1384 167.642 51.3742C167.251 51.5052 166.614 51.5717 165.728 51.5735L165.73 52.5501L170.652 52.5397L170.998 49.9609C172.122 51.7554 173.817 52.7284 176.082 52.8799C176.291 52.9055 176.486 52.9181 176.668 52.9177ZM176.713 37.0972C178.849 37.0927 180.245 38.3919 180.901 40.9947C181.164 41.9577 181.296 43.0512 181.299 44.2751C181.306 47.947 180.322 50.3319 178.345 51.4298C177.721 51.7696 177.031 51.9404 176.276 51.9419C174.323 51.9461 172.94 50.9073 172.129 48.8257C171.736 47.7327 171.538 46.4701 171.535 45.0378C171.528 41.8868 172.305 39.6065 173.864 38.197C174.696 37.4661 175.646 37.0995 176.713 37.0972ZM206.314 51.4881L204.361 51.4922L204.328 35.8672L198.195 35.8802L198.197 36.8567L201.4 36.85L201.418 45.2875C201.423 47.6312 200.606 49.3517 198.968 50.4489C198.24 50.9452 197.485 51.1942 196.704 51.1958C194.569 51.2003 193.329 50.1092 192.986 47.9224C192.933 47.5579 192.906 47.1674 192.906 46.7507L192.883 35.8913L186.945 35.9038L186.947 36.8804L189.955 36.8741L189.975 46.1709C190.01 50.624 191.877 52.8596 195.575 52.8779C197.528 52.8738 199.128 52.0761 200.374 50.485C200.842 49.885 201.218 49.2202 201.503 48.4904L201.785 52.4742L207.293 52.4626C207.291 51.8897 207.095 51.5776 206.705 51.5263C206.6 51.5005 206.47 51.4878 206.314 51.4881ZM218.267 51.4629L215.455 51.4689L215.438 43.6954C215.433 41.3257 216.158 39.4231 217.614 37.9877C218.185 37.4396 218.667 37.1522 219.057 37.1253C219.5 37.1244 219.904 37.449 220.27 38.0993C220.688 38.8276 221.08 39.2435 221.445 39.3469C221.601 39.3986 221.757 39.4243 221.914 39.424C222.695 39.4223 223.189 39.0437 223.396 38.2881C223.447 38.1317 223.473 37.9754 223.473 37.8191C223.47 36.6473 222.87 35.9324 221.671 35.6745C221.411 35.623 221.163 35.5974 220.929 35.5979C219.366 35.6012 217.975 36.2682 216.754 37.5989C216.182 38.2251 215.728 38.9292 215.391 39.7112L215.226 35.8443L209.562 35.8562L209.564 36.8328L212.494 36.8266L212.52 49.1313C212.522 50.3292 212.185 51.0461 211.509 51.2819C211.119 51.4129 210.481 51.4793 209.595 51.4812L209.597 52.4578L219.246 52.4374C219.244 51.8645 219.049 51.5524 218.658 51.5012C218.554 51.4754 218.423 51.4626 218.267 51.4629ZM228.564 44.0975C228.556 40.0611 229.657 37.5978 231.869 36.7077C232.441 36.4982 233.04 36.3928 233.665 36.3914C236.556 36.3854 238.239 38.2047 238.716 41.8496C238.795 42.4744 238.836 43.1644 238.837 43.9196C238.846 48.2946 237.654 50.8622 235.26 51.6225C234.791 51.7537 234.31 51.8198 233.815 51.8208C231.185 51.8264 229.528 50.2674 228.844 47.1438C228.66 46.2327 228.566 45.2173 228.564 44.0975ZM233.78 35.4146C231.28 35.4199 229.199 36.2836 227.536 38.0059C226.003 39.5977 225.238 41.5785 225.243 43.9482C225.25 47.2295 226.453 49.6879 228.853 51.3235C230.313 52.31 231.929 52.8014 233.7 52.7976C236.2 52.7924 238.268 51.9026 239.905 50.1283C241.412 48.5106 242.163 46.4908 242.158 44.0689C242.151 40.7876 240.935 38.3553 238.51 36.7719C237.075 35.8634 235.499 35.411 233.78 35.4146ZM245.283 44.2576C245.29 47.4087 246.454 49.763 248.775 51.3206C250.209 52.2811 251.838 52.7595 253.66 52.7556C256.369 52.7499 258.411 51.7951 259.787 49.8912C260.099 49.4478 260.345 49.0046 260.527 48.5615L259.51 48.2121C258.551 50.2714 256.965 51.4075 254.752 51.6205C254.544 51.647 254.335 51.6605 254.127 51.6609C252.278 51.6648 250.831 50.7434 249.785 48.8966C249.001 47.492 248.607 45.8262 248.603 43.8991C248.596 40.4876 249.489 38.2071 251.284 37.0575C252.038 36.5871 252.871 36.351 253.782 36.3491C255.188 36.3461 256.036 36.8912 256.325 37.9844C256.377 38.1926 256.443 38.518 256.522 38.9605C256.681 40.0019 256.968 40.6523 257.386 40.9118C257.646 41.0415 257.933 41.119 258.245 41.1444C259.131 41.1946 259.69 40.8289 259.923 40.0471C259.975 39.8647 260 39.6954 260 39.5391C259.997 38.211 259.148 37.1191 257.454 36.2632C256.255 35.6668 254.952 35.3701 253.546 35.373C250.056 35.3804 247.624 36.8048 246.25 39.6462C245.602 41.0017 245.28 42.5389 245.283 44.2576ZM270.65 51.3527L267.837 51.3586L267.821 43.5852C267.816 41.2154 268.541 39.3128 269.996 37.8775C270.568 37.3294 271.049 37.0419 271.44 37.0151C271.883 37.0141 272.287 37.3388 272.653 37.9891C273.071 38.7174 273.463 39.1332 273.827 39.2366C273.984 39.2884 274.14 39.3141 274.296 39.3137C275.078 39.3121 275.572 38.9334 275.778 38.1778C275.83 38.0214 275.856 37.8651 275.855 37.7089C275.853 36.537 275.253 35.8221 274.054 35.5642C273.794 35.5127 273.546 35.4872 273.312 35.4877C271.749 35.491 270.357 36.158 269.136 37.4887C268.565 38.1149 268.11 38.8189 267.773 39.6009L267.609 35.7341L261.945 35.746L261.947 36.7225L264.877 36.7164L264.903 49.021C264.905 50.2189 264.568 50.9358 263.892 51.1716C263.501 51.3026 262.863 51.3691 261.978 51.3709L261.98 52.3475L271.628 52.3272C271.627 51.7543 271.431 51.4422 271.04 51.3909C270.936 51.3651 270.806 51.3524 270.65 51.3527ZM291.356 52.6763C293.361 52.6721 294.465 51.4588 294.668 49.0365C294.694 48.8802 294.707 48.7369 294.707 48.6067L293.691 48.5698C293.513 50.4712 293.007 51.4358 292.173 51.4636C291.496 51.413 291.143 50.7366 291.115 49.4346L291.097 41.1924C291.089 37.4685 289.223 35.5063 285.499 35.3058C285.264 35.3063 285.03 35.3068 284.796 35.3073C281.879 35.3134 279.927 35.9946 278.941 37.3508C278.629 37.7942 278.474 38.2372 278.475 38.6799C278.476 39.4872 278.855 39.9552 279.61 40.0838C279.741 40.1096 279.871 40.1223 280.001 40.122C280.6 40.1208 281.042 39.7422 281.327 38.9864C281.689 38.0221 281.936 37.4487 282.065 37.2661C282.559 36.614 283.326 36.2869 284.368 36.2847C286.816 36.4358 288.082 37.7743 288.166 40.3002L288.171 42.7611C282.051 42.774 278.551 44.0574 277.671 46.6113C277.516 47.1065 277.439 47.6405 277.44 48.2134C277.444 50.1926 278.319 51.5449 280.066 52.2704C280.77 52.5553 281.512 52.697 282.293 52.6954C284.194 52.6914 285.794 52.037 287.094 50.7321C287.562 50.2364 287.912 49.7148 288.145 49.1674C288.463 51.4845 289.533 52.6541 291.356 52.6763ZM283.579 51.1302C281.99 51.1335 281.012 50.3413 280.644 48.7535C280.565 48.3891 280.526 47.9855 280.525 47.5428C280.521 45.798 281.521 44.6892 283.525 44.2162C284.593 43.9796 286.142 43.8461 288.173 43.8158L288.18 46.9408C287.793 48.7385 286.845 50.0035 285.336 50.7358C284.738 50.9975 284.152 51.129 283.579 51.1302ZM296.455 44.1499C296.462 47.301 297.625 49.6553 299.946 51.2129C301.381 52.1734 303.009 52.6518 304.832 52.6479C307.541 52.6422 309.583 51.6874 310.959 49.7835C311.271 49.3401 311.517 48.8969 311.698 48.4538L310.682 48.1044C309.723 50.1637 308.137 51.2998 305.924 51.5128C305.715 51.5393 305.507 51.5528 305.299 51.5532C303.45 51.5571 302.002 50.6357 300.957 48.7889C300.173 47.3843 299.779 45.7185 299.775 43.7914C299.767 40.3799 300.661 38.0994 302.455 36.9498C303.21 36.4794 304.043 36.2433 304.954 36.2414C306.36 36.2384 307.208 36.7835 307.496 37.8767C307.549 38.0849 307.615 38.4103 307.694 38.8528C307.852 39.8942 308.14 40.5446 308.557 40.8041C308.818 40.9338 309.105 41.0113 309.417 41.0367C310.303 41.0869 310.862 40.7212 311.095 39.9394C311.146 39.757 311.172 39.5877 311.172 39.4314C311.169 38.1033 310.32 37.0113 308.626 36.1555C307.426 35.5591 306.124 35.2624 304.718 35.2653C301.228 35.2727 298.796 36.6971 297.422 39.5385C296.774 40.894 296.451 42.4312 296.455 44.1499ZM321.079 51.2465L319.126 51.2507L319.093 35.6257L313.039 35.6384L313.041 36.615L316.166 36.6084L316.192 48.9131C316.194 50.111 315.792 50.841 314.985 51.1031C314.595 51.2081 313.957 51.2615 313.072 51.2634L313.074 52.24L322.058 52.2211C322.057 51.6481 321.861 51.336 321.47 51.2848C321.34 51.259 321.21 51.2463 321.079 51.2465ZM319.55 29.9216C319.548 29.0101 319.143 28.3599 318.335 27.971C318.022 27.8415 317.723 27.777 317.436 27.7776C316.525 27.7795 315.875 28.1976 315.486 29.0317C315.356 29.3184 315.292 29.6181 315.292 29.9306C315.294 30.8941 315.725 31.5573 316.586 31.92C316.872 32.0236 317.159 32.0751 317.445 32.0745C318.357 32.0725 318.994 31.6545 319.357 30.8204C319.486 30.5337 319.551 30.2341 319.55 29.9216ZM338.504 52.5771C340.509 52.5728 341.613 51.3596 341.817 48.9373C341.842 48.781 341.855 48.6377 341.855 48.5075L340.839 48.4706C340.661 50.372 340.155 51.3366 339.322 51.3644C338.645 51.3137 338.292 50.6374 338.263 49.3354L338.246 41.0932C338.238 37.3693 336.372 35.407 332.647 35.2065C332.413 35.207 332.178 35.2075 331.944 35.208C329.027 35.2142 327.076 35.8953 326.089 37.2516C325.777 37.695 325.622 38.138 325.623 38.5807C325.625 39.388 326.003 39.8559 326.759 39.9846C326.889 40.0103 327.019 40.0231 327.149 40.0228C327.748 40.0215 328.19 39.643 328.475 38.8872C328.838 37.9229 329.084 37.3495 329.214 37.1669C329.707 36.5148 330.475 36.1877 331.516 36.1855C333.965 36.3366 335.23 37.6751 335.314 40.2009L335.319 42.6619C329.199 42.6747 325.699 43.9582 324.819 46.5121C324.664 47.0072 324.587 47.5412 324.588 48.1142C324.593 50.0933 325.468 51.4456 327.214 52.1711C327.918 52.4561 328.66 52.5978 329.442 52.5961C331.343 52.5921 332.943 51.9377 334.242 50.6329C334.71 50.1371 335.06 49.6156 335.294 49.0682C335.611 51.3852 336.681 52.5549 338.504 52.5771ZM330.727 51.0309C329.139 51.0343 328.161 50.2421 327.793 48.6543C327.714 48.2899 327.674 47.8863 327.673 47.4436C327.669 45.6988 328.67 44.5899 330.674 44.117C331.741 43.8803 333.29 43.7469 335.321 43.7166L335.328 46.8415C334.941 48.6392 333.993 49.9043 332.484 50.6366C331.886 50.8983 331.3 51.0297 330.727 51.0309Z" fill="#603E3E"/>
</g>
<defs>
<clipPath id="clip0_17_57">
<rect width="427" height="505.068" fill="white" transform="translate(0 0.898788) rotate(-0.120593)"/>
</clipPath>
</defs>
</svg>
