<?xml version="1.0" encoding="utf-8" standalone="no"?>
<!DOCTYPE svg PUBLIC "-//W3C//DTD SVG 20010904//EN" "http://www.w3.org/TR/2001/REC-SVG-20010904/DTD/svg10.dtd"[]>
<svg version="1.0" xmlns="http://www.w3.org/2000/svg" width="1057.05" height="712.95" viewBox="221.1 397.05 1057.05 712.95" preserveAspectRatio="xMidYMid meet">
  <g transform="translate(0.000000,1500.000000) scale(0.100000,-0.100000)" fill="#000000" stroke="none">
    <path d="M7310 10970 c-218 -15 -69 23 -3341 -835 -848 -222 -1133 -300 -1185 -326 -138 -68 -297 -254 -369 -431 -74 -182 -69 -55 -72 -1798 -3 -1042 0 -1604 7 -1682 30 -337 232 -643 490 -739 30 -11 597 -162 1260 -335 663 -174 1582 -414 2044 -535 923 -242 923 -242 1082 -259 149 -16 577 -8 699 13 50 9 479 118 955 242 2903 759 3303 865 3363 894 203 97 374 340 429 608 18 89 18 158 16 1740 l-3 1648 -22 76 c-62 219 -179 398 -327 503 -92 65 -132 83 -293 126 -117 31 -3548 928 -3958 1035 -55 14 -147 32 -205 40 -135 18 -423 26 -570 15z m401 -310 c73 -6 173 -17 222 -25 116 -20 3950 -979 4017 -1005 214 -84 397 -312 460 -571 20 -83 20 -110 20 -1553 0 -1624 3 -1541 -65 -1699 -54 -126 -94 -186 -190 -282 -140 -141 -168 -152 -695 -286 -1028 -260 -3491 -871 -3570 -885 -216 -38 -564 -37 -788 2 -145 25 -3936 971 -4023 1004 -67 24 -155 80 -221 139 -106 95 -208 269 -250 431 l-23 85 0 1495 0 1495 28 88 c78 249 230 435 430 527 88 40 3940 1003 4097 1024 208 28 343 32 551 16z" />
    <path d="M7311 10579 c-58 -4 -137 -13 -175 -20 -39 -6 -955 -232 -2036 -501 -1533 -382 -1979 -497 -2029 -521 -193 -96 -346 -323 -381 -562 -8 -58 -10 -485 -8 -1530 l3 -1450 23 -74 c63 -205 202 -386 355 -461 49 -24 358 -105 1313 -345 687 -172 1571 -395 1964 -494 557 -140 744 -184 845 -196 163 -19 510 -19 665 0 161 19 4017 984 4106 1027 174 84 324 279 374 486 17 72 19 161 24 1492 4 896 2 1449 -4 1508 -20 188 -95 347 -225 477 -93 93 -167 136 -294 171 -237 66 -3819 954 -3901 967 -205 34 -407 42 -619 26z m-120 -1549 l-217 -725 -444 -3 c-244 -1 -447 1 -451 5 -4 5 236 271 533 593 297 322 596 647 665 723 69 76 127 137 128 135 2 -2 -95 -329 -214 -728z m934 -157 c-59 -197 -121 -404 -138 -460 l-30 -103 -290 0 c-283 0 -289 0 -276 19 8 10 167 184 354 386 187 202 372 402 410 445 39 43 72 76 73 75 2 -2 -44 -165 -103 -362z m-2309 -1705 c104 -38 175 -112 209 -216 25 -75 18 -220 -13 -284 -36 -74 -96 -134 -170 -170 -63 -31 -73 -33 -177 -33 -97 0 -116 3 -165 26 -73 34 -145 106 -178 177 -23 50 -27 70 -27 157 0 87 3 107 26 156 37 78 90 133 164 170 106 52 222 58 331 17z m1347 22 c125 -20 226 -94 276 -200 23 -48 26 -68 26 -160 0 -93 -3 -112 -27 -162 -34 -73 -98 -137 -174 -174 -54 -27 -68 -29 -169 -29 -105 0 -114 2 -177 33 -75 37 -138 100 -171 172 -18 37 -21 65 -22 155 0 101 2 115 28 167 48 97 143 169 257 194 70 16 82 16 153 4z m2599 -20 c55 -17 57 -17 61 1 3 11 12 19 21 19 14 0 16 -16 16 -105 0 -104 0 -105 -24 -105 -20 0 -25 7 -31 38 -15 82 -86 142 -169 142 -71 0 -116 -38 -116 -100 0 -65 53 -116 197 -189 110 -55 173 -129 173 -206 0 -43 -32 -107 -70 -138 -60 -51 -95 -61 -220 -61 -99 -1 -122 2 -164 22 -58 27 -53 26 -59 2 -3 -11 -12 -20 -21 -20 -14 0 -16 17 -16 125 0 125 0 125 24 125 20 0 24 -6 30 -47 7 -54 45 -123 80 -146 69 -46 172 -42 222 8 19 19 24 35 24 74 0 69 -31 102 -166 175 -173 95 -210 139 -202 241 4 48 10 61 43 95 36 37 87 61 155 74 41 7 151 -5 212 -24z m-1011 -7 c41 -18 95 -69 109 -103 17 -41 8 -120 -18 -163 -14 -21 -43 -46 -75 -63 l-54 -27 91 -154 91 -153 63 0 62 0 0 325 0 325 -45 0 c-33 0 -45 4 -45 15 0 13 27 15 181 15 140 0 180 -3 177 -12 -3 -7 -25 -14 -51 -16 l-47 -3 0 -324 0 -324 42 -3 c23 -2 43 -9 46 -16 3 -10 -53 -12 -273 -10 l-277 3 -87 160 c-76 141 -90 160 -114 163 l-27 3 0 -150 0 -151 45 0 c33 0 45 -4 45 -15 0 -13 -27 -15 -180 -15 -153 0 -180 2 -180 15 0 11 12 15 50 15 l50 0 0 325 0 325 -94 0 -95 0 -3 -267 -3 -268 -28 -47 c-18 -31 -44 -57 -75 -75 -44 -26 -55 -28 -157 -28 -100 0 -115 3 -163 28 -63 33 -107 90 -121 158 -6 27 -11 151 -11 274 l0 225 -45 0 c-33 0 -45 4 -45 15 0 13 26 15 175 15 149 0 175 -2 175 -15 0 -11 -12 -15 -46 -15 l-45 0 3 -262 c3 -245 4 -266 25 -310 26 -57 68 -82 138 -81 89 1 143 44 170 136 11 39 15 106 15 283 l0 233 -47 3 c-25 2 -48 8 -50 15 -3 9 26 13 114 15 212 5 606 -7 634 -19z m-4076 -229 c65 -135 122 -247 125 -249 4 -2 53 108 110 245 l103 250 129 0 c107 0 128 -2 128 -15 0 -11 -12 -15 -45 -15 l-45 0 0 -324 0 -325 42 -3 c23 -2 43 -9 46 -15 3 -10 -36 -13 -172 -13 -147 0 -176 2 -176 14 0 11 14 16 48 18 l47 3 2 274 c1 150 -2 269 -7 265 -5 -5 -62 -137 -128 -294 -68 -163 -125 -286 -133 -287 -9 -2 -56 79 -134 233 -66 129 -122 237 -125 239 -3 2 -6 -94 -5 -213 l0 -217 42 -3 c24 -2 44 -9 47 -18 4 -12 -14 -14 -114 -14 -100 0 -120 3 -120 15 0 11 12 15 45 15 l45 0 0 325 0 325 -45 0 c-33 0 -45 4 -45 15 0 12 19 15 108 15 l108 0 119 -246z m2015 120 c0 -109 -2 -125 -16 -122 -9 2 -28 36 -47 88 -36 94 -72 130 -134 130 l-33 0 2 -322 3 -323 47 -3 c25 -2 52 -10 58 -18 11 -12 -14 -14 -189 -14 -172 0 -201 2 -201 15 0 12 13 15 60 15 l60 0 0 325 0 325 -30 0 c-71 0 -108 -42 -146 -162 -13 -43 -22 -58 -36 -58 -16 0 -18 11 -18 125 l0 125 310 0 310 0 0 -126z m3560 -125 c76 -156 126 -246 130 -238 5 7 52 119 107 251 l98 238 128 0 c106 0 127 -2 127 -15 0 -11 -12 -15 -45 -15 l-45 0 0 -324 0 -325 42 -3 c23 -2 43 -9 46 -15 3 -10 -36 -13 -172 -13 -150 0 -176 2 -176 15 0 11 12 15 50 15 l50 0 0 277 c0 152 -4 273 -8 268 -8 -9 -165 -379 -226 -533 -13 -33 -26 -51 -35 -50 -8 2 -67 105 -131 230 -64 125 -119 231 -123 235 -4 3 -7 -91 -7 -210 l0 -216 42 -3 c23 -2 43 -9 46 -15 3 -10 -25 -13 -117 -13 -101 0 -121 2 -121 15 0 11 12 15 50 15 l50 0 0 325 0 325 -50 0 c-38 0 -50 4 -50 15 0 12 19 15 108 15 l108 0 124 -251z" />
    <path d="M5590 7142 c-73 -37 -101 -108 -107 -281 -10 -258 44 -361 190 -361 104 0 157 65 177 220 21 151 -4 318 -57 381 -49 58 -135 76 -203 41z" />
    <path d="M7010 7138 c-78 -53 -104 -134 -103 -323 0 -197 41 -288 142 -315 92 -24 161 11 202 102 19 45 23 74 27 191 8 258 -39 355 -175 365 -49 3 -64 0 -93 -20z" />
    <path d="M8500 6990 l0 -160 40 0 c99 0 150 53 150 158 0 109 -45 162 -136 162 l-54 0 0 -160z" />
  </g>
</svg>